  0
SECTION
  2
HEADER
  9
$ACADVER
  1
AC1009
  9
$INSBASE
 10
0.0
 20
0.0
 30
0.0
  9
$EXTMIN
 10
0.0
 20
0.0
 30
0.0
  9
$EXTMAX
 10
0.0
 20
0.0
 30
0.0
  0
ENDSEC
  0
SECTION
  2
TABLES
  0
TABLE
  2
VPORT
 70
1
  0
VPORT
  2
*ACTIVE
 70
0
 10
0.0
 20
0.0
 11
1.0
 21
1.0
 12
-5.0
 22
1.0
 13
0.0
 23
0.0
 14
0.1
 24
0.1
 15
0.1
 25
0.1
 16
0.0
 26
0.0
 36
1.0
 17
0.0
 27
0.0
 37
0.0
 40
10.0
 41
1.0
 42
50.0
 43
0.0
 44
0.0
 50
0.0
 51
0.0
 71
0
 72
100
 73
1
 74
1
 75
0
 76
0
 77
0
 78
0
  0
ENDTAB
  0
TABLE
  2
LTYPE
 70
8
  0
LTYPE
  2
CONTINUOUS
 70
0
  3
Solid line
 72
65
 73
0
 40
0.0
  0
LTYPE
  2
DOT
 70
0
  3
. . . . . . .
 72
65
 73
2
 40
0.25
 49
0.0
 49
-0.25
  0
LTYPE
  2
DASHED
 70
0
  3
__ __ __ __ __
 72
65
 73
2
 40
0.8
 49
0.5
 49
-0.3
  0
LTYPE
  2
DASHDOT
 70
0
  3
__ . __ . __ .
 72
65
 73
4
 40
1.0
 49
0.5
 49
-0.25
 49
0.0
 49
-0.25
  0
LTYPE
  2
DIVIDE
 70
0
  3
____ . . ____ . . 
 72
65
 73
6
 40
1.25
 49
0.5
 49
-0.25
 49
0.0
 49
-0.25
 49
0.0
 49
-0.25
  0
LTYPE
  2
BORDER
 70
0
  3
__ __ . __ __ . 
 72
65
 73
6
 40
1.75
 49
0.5
 49
-0.25
 49
0.5
 49
-0.25
 49
0.0
 49
-0.25
  0
LTYPE
  2
HIDDEN
 70
0
  3
__ __ __ __ __
 72
65
 73
2
 40
0.4
 49
0.25
 49
-0.25
  0
LTYPE
  2
CENTER
 70
0
  3
____ _ ____ _ __
 72
65
 73
4
 40
2.0
 49
1.25
 49
-0.25
 49
0.25
 49
-0.25
  0
ENDTAB
  0
TABLE
  2
LAYER
 70
1
  0
LAYER
  2
PYDXF
 70
64
 62
7
  6
continuous
  0
ENDTAB
  0
TABLE
  2
STYLE
 70
1
  0
STYLE
  2
STANDARD
 70
0
 40
0
 41
1.0
 50
0.0
 71
0
 42
1
 3
ARIAL.TTF
 4

  0
ENDTAB
  0
TABLE
  2
VIEW
 70
1
  0
VIEW
  2
BF_TOPVIEW
 70
0
 40
120.0
 10
0.0
 20
0.0
 41
200.0
 11
0.0
 21
0.0
 31
1.0
 12
0.0
 22
0.0
 32
0.0
 42
50.0
 43
0.0
 44
0.0
 50
0.0
 71
0
  0
ENDTAB
  0
ENDSEC
  0
SECTION
  2
BLOCKS
  0
ENDSEC
  0
SECTION
  2
ENTITIES
  0
LINE
  8
0
 10
62.32843017578125
 20
110.42841339111328
 30
-4.76837158203125e-07
 11
63.195518493652344
 21
109.13072967529297
 31
-4.76837158203125e-07
  0
LINE
  8
0
 10
36.40873336791992
 20
106.2266616821289
 30
-1.6689300537109375e-06
 11
36.5
 21
105.29999542236328
 31
-1.6689300537109375e-06
  0
LINE
  8
0
 10
33.567752838134766
 20
109.68842315673828
 30
-1.6689300537109375e-06
 11
32.67668533325195
 21
109.95872497558594
 31
-1.6689300537109375e-06
  0
LINE
  8
0
 10
31.749996185302734
 20
110.04999542236328
 30
-1.6689300537109375e-06
 11
32.67668533325195
 21
109.95872497558594
 31
-1.6689300537109375e-06
  0
LINE
  8
0
 10
36.138431549072266
 20
107.11773681640625
 30
-1.6689300537109375e-06
 11
35.699485778808594
 21
107.93894958496094
 31
-1.6689300537109375e-06
  0
LINE
  8
0
 10
34.38896560668945
 20
109.24947357177734
 30
-1.6689300537109375e-06
 11
35.1087646484375
 21
108.65874481201172
 31
-1.6689300537109375e-06
  0
LINE
  8
0
 10
36.5
 20
105.29999542236328
 30
-1.6689300537109375e-06
 11
36.40873336791992
 21
104.3733139038086
 31
-1.6689300537109375e-06
  0
LINE
  8
0
 10
2.4692726135253906
 20
111.2955093383789
 30
-4.76837158203125e-07
 11
1.17156982421875
 21
110.42842102050781
 31
-4.76837158203125e-07
  0
LINE
  8
0
 10
35.699485778808594
 20
107.93894958496094
 30
-1.6689300537109375e-06
 11
35.1087646484375
 21
108.65874481201172
 31
-1.6689300537109375e-06
  0
LINE
  8
0
 10
1.17156982421875
 20
110.42842102050781
 30
-4.76837158203125e-07
 11
0.30448150634765625
 21
109.13072967529297
 31
-4.76837158203125e-07
  0
LINE
  8
0
 10
4.000003814697266
 20
111.5999984741211
 30
-4.76837158203125e-07
 11
2.4692726135253906
 21
111.2955093383789
 31
-4.76837158203125e-07
  0
LINE
  8
0
 10
3.814697265625e-06
 20
107.5999984741211
 30
-4.76837158203125e-07
 11
0.30448150634765625
 21
109.13072967529297
 31
-4.76837158203125e-07
  0
LINE
  8
0
 10
34.38896560668945
 20
109.24947357177734
 30
-1.6689300537109375e-06
 11
33.567752838134766
 21
109.68842315673828
 31
-1.6689300537109375e-06
  0
LINE
  8
0
 10
33.5677490234375
 20
100.91156768798828
 30
-1.6689300537109375e-06
 11
32.67668151855469
 21
100.64126586914062
 31
-1.6689300537109375e-06
  0
LINE
  8
0
 10
36.138431549072266
 20
107.11773681640625
 30
-1.6689300537109375e-06
 11
36.40873336791992
 21
106.2266616821289
 31
-1.6689300537109375e-06
  0
LINE
  8
0
 10
63.195518493652344
 20
109.13072967529297
 30
-4.76837158203125e-07
 11
63.5
 21
107.5999984741211
 31
-4.76837158203125e-07
  0
LINE
  8
0
 10
33.5677490234375
 20
100.91156768798828
 30
-1.6689300537109375e-06
 11
34.38896179199219
 21
101.35051727294922
 31
-1.6689300537109375e-06
  0
LINE
  8
0
 10
35.108760833740234
 20
101.94123840332031
 30
-1.6689300537109375e-06
 11
35.69948196411133
 21
102.6610336303711
 31
-1.6689300537109375e-06
  0
LINE
  8
0
 10
27.091270446777344
 20
104.3733139038086
 30
-1.6689300537109375e-06
 11
27.0
 21
105.29999542236328
 31
-1.6689300537109375e-06
  0
LINE
  8
0
 10
27.091270446777344
 20
104.3733139038086
 30
-1.6689300537109375e-06
 11
27.361576080322266
 21
103.48224639892578
 31
-1.6689300537109375e-06
  0
LINE
  8
0
 10
27.800521850585938
 20
102.6610336303711
 30
-1.6689300537109375e-06
 11
27.361576080322266
 21
103.48224639892578
 31
-1.6689300537109375e-06
  0
LINE
  8
0
 10
27.800521850585938
 20
102.6610336303711
 30
-1.6689300537109375e-06
 11
28.39124298095703
 21
101.94123840332031
 31
-1.6689300537109375e-06
  0
LINE
  8
0
 10
28.39124298095703
 20
101.94123840332031
 30
-1.6689300537109375e-06
 11
29.111042022705078
 21
101.35051727294922
 31
-1.6689300537109375e-06
  0
LINE
  8
0
 10
29.932254791259766
 20
100.91156768798828
 30
-1.6689300537109375e-06
 11
29.111042022705078
 21
101.35051727294922
 31
-1.6689300537109375e-06
  0
LINE
  8
0
 10
29.932254791259766
 20
100.91156768798828
 30
-1.6689300537109375e-06
 11
30.823322296142578
 21
100.64126586914062
 31
-1.6689300537109375e-06
  0
LINE
  8
0
 10
31.75
 20
100.54999542236328
 30
-1.6689300537109375e-06
 11
30.823322296142578
 21
100.64126586914062
 31
-1.6689300537109375e-06
  0
LINE
  8
0
 10
36.40873336791992
 20
104.3733139038086
 30
-1.6689300537109375e-06
 11
36.138431549072266
 21
103.48224639892578
 31
-1.6689300537109375e-06
  0
LINE
  8
0
 10
59.5
 20
111.5999984741211
 30
-4.76837158203125e-07
 11
61.030731201171875
 21
111.2955093383789
 31
-4.76837158203125e-07
  0
LINE
  8
0
 10
4.000003814697266
 20
111.5999984741211
 30
-4.76837158203125e-07
 11
59.5
 21
111.5999984741211
 31
-4.76837158203125e-07
  0
LINE
  8
0
 10
31.75
 20
100.54999542236328
 30
-1.6689300537109375e-06
 11
32.67668151855469
 21
100.64126586914062
 31
-1.6689300537109375e-06
  0
LINE
  8
0
 10
62.32843017578125
 20
110.42841339111328
 30
-4.76837158203125e-07
 11
61.030731201171875
 21
111.2955093383789
 31
-4.76837158203125e-07
  0
LINE
  8
0
 10
35.69948196411133
 20
102.6610336303711
 30
-1.6689300537109375e-06
 11
36.138431549072266
 21
103.48224639892578
 31
-1.6689300537109375e-06
  0
LINE
  8
0
 10
35.108760833740234
 20
101.94123840332031
 30
-1.6689300537109375e-06
 11
34.38896179199219
 21
101.35051727294922
 31
-1.6689300537109375e-06
  0
LINE
  8
0
 10
30.823318481445312
 20
109.95872497558594
 30
-1.6689300537109375e-06
 11
31.749996185302734
 21
110.04999542236328
 31
-1.6689300537109375e-06
  0
LINE
  8
0
 10
29.9322509765625
 20
109.68842315673828
 30
-1.6689300537109375e-06
 11
30.823318481445312
 21
109.95872497558594
 31
-1.6689300537109375e-06
  0
LINE
  8
0
 10
29.9322509765625
 20
109.68842315673828
 30
-1.6689300537109375e-06
 11
29.111038208007812
 21
109.24947357177734
 31
-1.6689300537109375e-06
  0
LINE
  8
0
 10
28.391239166259766
 20
108.65874481201172
 30
-1.6689300537109375e-06
 11
29.111038208007812
 21
109.24947357177734
 31
-1.6689300537109375e-06
  0
LINE
  8
0
 10
27.800518035888672
 20
107.93894958496094
 30
-1.6689300537109375e-06
 11
28.391239166259766
 21
108.65874481201172
 31
-1.6689300537109375e-06
  0
LINE
  8
0
 10
27.361572265625
 20
107.11773681640625
 30
-1.6689300537109375e-06
 11
27.800518035888672
 21
107.93894958496094
 31
-1.6689300537109375e-06
  0
LINE
  8
0
 10
27.091270446777344
 20
106.2266616821289
 30
-1.6689300537109375e-06
 11
27.361572265625
 21
107.11773681640625
 31
-1.6689300537109375e-06
  0
LINE
  8
0
 10
27.091270446777344
 20
106.2266616821289
 30
-1.6689300537109375e-06
 11
27.0
 21
105.29999542236328
 31
-1.6689300537109375e-06
  0
LINE
  8
0
 10
62.32843780517578
 20
1.1715713739395142
 30
-4.76837158203125e-07
 11
63.195526123046875
 21
2.4692625999450684
 31
-4.76837158203125e-07
  0
LINE
  8
0
 10
36.50000762939453
 20
6.299996852874756
 30
-1.6689300537109375e-06
 11
36.40873718261719
 21
5.373326778411865
 31
-1.6689300537109375e-06
  0
LINE
  8
0
 10
33.56775665283203
 20
1.9115692377090454
 30
-1.6689300537109375e-06
 11
32.67668914794922
 21
1.6412674188613892
 31
-1.6689300537109375e-06
  0
LINE
  8
0
 10
32.67668914794922
 20
1.6412674188613892
 30
-1.6689300537109375e-06
 11
31.75
 21
1.5499969720840454
 31
-1.6689300537109375e-06
  0
LINE
  8
0
 10
36.13843536376953
 20
4.482255458831787
 30
-1.6689300537109375e-06
 11
35.69948959350586
 21
3.6610426902770996
 31
-1.6689300537109375e-06
  0
LINE
  8
0
 10
35.108768463134766
 20
2.9412436485290527
 30
-1.6689300537109375e-06
 11
34.38896942138672
 21
2.3505187034606934
 31
-1.6689300537109375e-06
  0
LINE
  8
0
 10
36.50000762939453
 20
6.299996852874756
 30
-1.6689300537109375e-06
 11
36.40873718261719
 21
7.226674556732178
 31
-1.6689300537109375e-06
  0
LINE
  8
0
 10
2.4692745208740234
 20
0.3044792115688324
 30
-4.76837158203125e-07
 11
1.1715755462646484
 21
1.1715675592422485
 31
-4.76837158203125e-07
  0
LINE
  8
0
 10
35.69948959350586
 20
3.6610426902770996
 30
-1.6689300537109375e-06
 11
35.108768463134766
 21
2.9412436485290527
 31
-1.6689300537109375e-06
  0
LINE
  8
0
 10
1.1715755462646484
 20
1.1715675592422485
 30
-4.76837158203125e-07
 11
0.3044872283935547
 21
2.4692587852478027
 31
-4.76837158203125e-07
  0
LINE
  8
0
 10
4.000005722045898
 20
-2.294778823852539e-06
 30
-4.76837158203125e-07
 11
2.4692745208740234
 21
0.3044792115688324
 31
-4.76837158203125e-07
  0
LINE
  8
0
 10
5.7220458984375e-06
 20
3.999997615814209
 30
-4.76837158203125e-07
 11
0.3044872283935547
 21
2.4692587852478027
 31
-4.76837158203125e-07
  0
LINE
  8
0
 10
33.56775665283203
 20
1.9115692377090454
 30
-1.6689300537109375e-06
 11
34.38896942138672
 21
2.3505187034606934
 31
-1.6689300537109375e-06
  0
LINE
  8
0
 10
32.67668533325195
 20
10.95872688293457
 30
-1.6689300537109375e-06
 11
33.567752838134766
 21
10.688425064086914
 31
-1.6689300537109375e-06
  0
LINE
  8
0
 10
36.40873718261719
 20
5.373326778411865
 30
-1.6689300537109375e-06
 11
36.13843536376953
 21
4.482255458831787
 31
-1.6689300537109375e-06
  0
LINE
  8
0
 10
63.195526123046875
 20
2.4692625999450684
 30
-4.76837158203125e-07
 11
63.500003814697266
 21
3.999997615814209
 31
-4.76837158203125e-07
  0
LINE
  8
0
 10
33.567752838134766
 20
10.688425064086914
 30
-1.6689300537109375e-06
 11
34.38896560668945
 21
10.249479293823242
 31
-1.6689300537109375e-06
  0
LINE
  8
0
 10
35.1087646484375
 20
9.658754348754883
 30
-1.6689300537109375e-06
 11
35.699485778808594
 21
8.938955307006836
 31
-1.6689300537109375e-06
  0
LINE
  8
0
 10
27.09127426147461
 20
7.226674556732178
 30
-1.6689300537109375e-06
 11
27.00000762939453
 21
6.299996852874756
 31
-1.6689300537109375e-06
  0
LINE
  8
0
 10
27.09127426147461
 20
7.226674556732178
 30
-1.6689300537109375e-06
 11
27.361576080322266
 21
8.117742538452148
 31
-1.6689300537109375e-06
  0
LINE
  8
0
 10
27.361576080322266
 20
8.117742538452148
 30
-1.6689300537109375e-06
 11
27.800525665283203
 21
8.938955307006836
 31
-1.6689300537109375e-06
  0
LINE
  8
0
 10
27.800525665283203
 20
8.938955307006836
 30
-1.6689300537109375e-06
 11
28.391250610351562
 21
9.658754348754883
 31
-1.6689300537109375e-06
  0
LINE
  8
0
 10
28.391250610351562
 20
9.658754348754883
 30
-1.6689300537109375e-06
 11
29.111045837402344
 21
10.249479293823242
 31
-1.6689300537109375e-06
  0
LINE
  8
0
 10
29.111045837402344
 20
10.249479293823242
 30
-1.6689300537109375e-06
 11
29.93225860595703
 21
10.688425064086914
 31
-1.6689300537109375e-06
  0
LINE
  8
0
 10
29.93225860595703
 20
10.688425064086914
 30
-1.6689300537109375e-06
 11
30.823326110839844
 21
10.95872688293457
 31
-1.6689300537109375e-06
  0
LINE
  8
0
 10
30.823326110839844
 20
10.95872688293457
 30
-1.6689300537109375e-06
 11
31.750003814697266
 21
11.049997329711914
 31
-1.6689300537109375e-06
  0
LINE
  8
0
 10
36.40873718261719
 20
7.226674556732178
 30
-1.6689300537109375e-06
 11
36.138431549072266
 21
8.117742538452148
 31
-1.6689300537109375e-06
  0
LINE
  8
0
 10
59.500003814697266
 20
-2.294778823852539e-06
 30
-4.76837158203125e-07
 11
61.03073501586914
 21
0.3044792115688324
 31
-4.76837158203125e-07
  0
LINE
  8
0
 10
4.000005722045898
 20
-2.294778823852539e-06
 30
-4.76837158203125e-07
 11
59.500003814697266
 21
-2.294778823852539e-06
 31
-4.76837158203125e-07
  0
LINE
  8
0
 10
32.67668533325195
 20
10.95872688293457
 30
-1.6689300537109375e-06
 11
31.750003814697266
 21
11.049997329711914
 31
-1.6689300537109375e-06
  0
LINE
  8
0
 10
62.32843780517578
 20
1.1715713739395142
 30
-4.76837158203125e-07
 11
61.03073501586914
 21
0.3044792115688324
 31
-4.76837158203125e-07
  0
LINE
  8
0
 10
35.699485778808594
 20
8.938955307006836
 30
-1.6689300537109375e-06
 11
36.138431549072266
 21
8.117742538452148
 31
-1.6689300537109375e-06
  0
LINE
  8
0
 10
34.38896560668945
 20
10.249479293823242
 30
-1.6689300537109375e-06
 11
35.1087646484375
 21
9.658754348754883
 31
-1.6689300537109375e-06
  0
LINE
  8
0
 10
31.75
 20
1.5499969720840454
 30
-1.6689300537109375e-06
 11
30.823322296142578
 21
1.6412674188613892
 31
-1.6689300537109375e-06
  0
LINE
  8
0
 10
30.823322296142578
 20
1.6412674188613892
 30
-1.6689300537109375e-06
 11
29.932254791259766
 21
1.9115692377090454
 31
-1.6689300537109375e-06
  0
LINE
  8
0
 10
29.932254791259766
 20
1.9115692377090454
 30
-1.6689300537109375e-06
 11
29.111042022705078
 21
2.3505187034606934
 31
-1.6689300537109375e-06
  0
LINE
  8
0
 10
29.111042022705078
 20
2.3505187034606934
 30
-1.6689300537109375e-06
 11
28.391246795654297
 21
2.9412436485290527
 31
-1.6689300537109375e-06
  0
LINE
  8
0
 10
28.391246795654297
 20
2.9412436485290527
 30
-1.6689300537109375e-06
 11
27.800521850585938
 21
3.6610426902770996
 31
-1.6689300537109375e-06
  0
LINE
  8
0
 10
27.800521850585938
 20
3.6610426902770996
 30
-1.6689300537109375e-06
 11
27.361576080322266
 21
4.482255458831787
 31
-1.6689300537109375e-06
  0
LINE
  8
0
 10
27.361576080322266
 20
4.482255458831787
 30
-1.6689300537109375e-06
 11
27.09127426147461
 21
5.373326778411865
 31
-1.6689300537109375e-06
  0
LINE
  8
0
 10
27.00000762939453
 20
6.299996852874756
 30
-1.6689300537109375e-06
 11
27.09127426147461
 21
5.373326778411865
 31
-1.6689300537109375e-06
  0
LINE
  8
0
 10
3.814697265625e-06
 20
107.5999984741211
 30
-4.76837158203125e-07
 11
5.7220458984375e-06
 21
3.999997615814209
 31
-4.76837158203125e-07
  0
LINE
  8
0
 10
63.5
 20
107.5999984741211
 30
-4.76837158203125e-07
 11
63.500003814697266
 21
3.999997615814209
 31
-4.76837158203125e-07
  0
LINE
  8
0
 10
33.53725051879883
 20
5.944493770599365
 30
-1.6689300537109375e-06
 11
33.572265625
 21
6.299996852874756
 31
-1.6689300537109375e-06
  0
LINE
  8
0
 10
32.447357177734375
 20
4.616448879241943
 30
-1.6689300537109375e-06
 11
32.10551834106445
 21
4.512753963470459
 31
-1.6689300537109375e-06
  0
LINE
  8
0
 10
31.750003814697266
 20
4.477738857269287
 30
-1.6689300537109375e-06
 11
32.10551834106445
 21
4.512753963470459
 31
-1.6689300537109375e-06
  0
LINE
  8
0
 10
33.433555603027344
 20
5.602647304534912
 30
-1.6689300537109375e-06
 11
33.265159606933594
 21
5.287606716156006
 31
-1.6689300537109375e-06
  0
LINE
  8
0
 10
32.76239776611328
 20
4.784841060638428
 30
-1.6689300537109375e-06
 11
33.03853988647461
 21
5.011464595794678
 31
-1.6689300537109375e-06
  0
LINE
  8
0
 10
33.572265625
 20
6.299996852874756
 30
-1.6689300537109375e-06
 11
33.53725051879883
 21
6.6554999351501465
 31
-1.6689300537109375e-06
  0
LINE
  8
0
 10
33.265159606933594
 20
5.287606716156006
 30
-1.6689300537109375e-06
 11
33.03853988647461
 21
5.011464595794678
 31
-1.6689300537109375e-06
  0
LINE
  8
0
 10
32.76239776611328
 20
4.784841060638428
 30
-1.6689300537109375e-06
 11
32.447357177734375
 21
4.616448879241943
 31
-1.6689300537109375e-06
  0
LINE
  8
0
 10
32.447357177734375
 20
7.983544826507568
 30
-1.6689300537109375e-06
 11
32.10551071166992
 21
8.087240219116211
 31
-1.6689300537109375e-06
  0
LINE
  8
0
 10
33.433555603027344
 20
5.602647304534912
 30
-1.6689300537109375e-06
 11
33.53725051879883
 21
5.944493770599365
 31
-1.6689300537109375e-06
  0
LINE
  8
0
 10
32.447357177734375
 20
7.983544826507568
 30
-1.6689300537109375e-06
 11
32.76239776611328
 21
7.815152645111084
 31
-1.6689300537109375e-06
  0
LINE
  8
0
 10
33.038536071777344
 20
7.588529109954834
 30
-1.6689300537109375e-06
 11
33.265159606933594
 21
7.3123908042907715
 31
-1.6689300537109375e-06
  0
LINE
  8
0
 10
29.96276092529297
 20
6.6554999351501465
 30
-1.6689300537109375e-06
 11
29.927745819091797
 21
6.299996852874756
 31
-1.6689300537109375e-06
  0
LINE
  8
0
 10
29.96276092529297
 20
6.6554999351501465
 30
-1.6689300537109375e-06
 11
30.06645965576172
 21
6.997342586517334
 31
-1.6689300537109375e-06
  0
LINE
  8
0
 10
30.23485565185547
 20
7.3123908042907715
 30
-1.6689300537109375e-06
 11
30.06645965576172
 21
6.997342586517334
 31
-1.6689300537109375e-06
  0
LINE
  8
0
 10
30.23485565185547
 20
7.3123908042907715
 30
-1.6689300537109375e-06
 11
30.461475372314453
 21
7.588529109954834
 31
-1.6689300537109375e-06
  0
LINE
  8
0
 10
30.461475372314453
 20
7.588529109954834
 30
-1.6689300537109375e-06
 11
30.737613677978516
 21
7.815152645111084
 31
-1.6689300537109375e-06
  0
LINE
  8
0
 10
31.052654266357422
 20
7.983544826507568
 30
-1.6689300537109375e-06
 11
30.737613677978516
 21
7.815152645111084
 31
-1.6689300537109375e-06
  0
LINE
  8
0
 10
31.052654266357422
 20
7.983544826507568
 30
-1.6689300537109375e-06
 11
31.394500732421875
 21
8.087240219116211
 31
-1.6689300537109375e-06
  0
LINE
  8
0
 10
31.75000762939453
 20
8.122255325317383
 30
-1.6689300537109375e-06
 11
31.394500732421875
 21
8.087240219116211
 31
-1.6689300537109375e-06
  0
LINE
  8
0
 10
33.53725051879883
 20
6.6554999351501465
 30
-1.6689300537109375e-06
 11
33.43355178833008
 21
6.997342586517334
 31
-1.6689300537109375e-06
  0
LINE
  8
0
 10
31.75000762939453
 20
8.122255325317383
 30
-1.6689300537109375e-06
 11
32.10551071166992
 21
8.087240219116211
 31
-1.6689300537109375e-06
  0
LINE
  8
0
 10
33.265159606933594
 20
7.3123908042907715
 30
-1.6689300537109375e-06
 11
33.43355178833008
 21
6.997342586517334
 31
-1.6689300537109375e-06
  0
LINE
  8
0
 10
33.038536071777344
 20
7.588529109954834
 30
-1.6689300537109375e-06
 11
32.76239776611328
 21
7.815152645111084
 31
-1.6689300537109375e-06
  0
LINE
  8
0
 10
31.39449691772461
 20
4.512753963470459
 30
-1.6689300537109375e-06
 11
31.750003814697266
 21
4.477738857269287
 31
-1.6689300537109375e-06
  0
LINE
  8
0
 10
31.052654266357422
 20
4.616448879241943
 30
-1.6689300537109375e-06
 11
31.39449691772461
 21
4.512753963470459
 31
-1.6689300537109375e-06
  0
LINE
  8
0
 10
31.052654266357422
 20
4.616448879241943
 30
-1.6689300537109375e-06
 11
30.737613677978516
 21
4.784841060638428
 31
-1.6689300537109375e-06
  0
LINE
  8
0
 10
30.461475372314453
 20
5.011464595794678
 30
-1.6689300537109375e-06
 11
30.737613677978516
 21
4.784841060638428
 31
-1.6689300537109375e-06
  0
LINE
  8
0
 10
30.234851837158203
 20
5.287606716156006
 30
-1.6689300537109375e-06
 11
30.461475372314453
 21
5.011464595794678
 31
-1.6689300537109375e-06
  0
LINE
  8
0
 10
30.06645965576172
 20
5.602647304534912
 30
-1.6689300537109375e-06
 11
30.234851837158203
 21
5.287606716156006
 31
-1.6689300537109375e-06
  0
LINE
  8
0
 10
29.96276092529297
 20
5.944493770599365
 30
-1.6689300537109375e-06
 11
30.06645965576172
 21
5.602647304534912
 31
-1.6689300537109375e-06
  0
LINE
  8
0
 10
29.96276092529297
 20
5.944493770599365
 30
-1.6689300537109375e-06
 11
29.927745819091797
 21
6.299996852874756
 31
-1.6689300537109375e-06
  0
LINE
  8
0
 10
33.53724670410156
 20
104.94449615478516
 30
-1.6689300537109375e-06
 11
33.572261810302734
 21
105.29999542236328
 31
-1.6689300537109375e-06
  0
LINE
  8
0
 10
32.44735336303711
 20
103.61644744873047
 30
-1.6689300537109375e-06
 11
32.10551452636719
 21
103.51275634765625
 31
-1.6689300537109375e-06
  0
LINE
  8
0
 10
31.75
 20
103.47774505615234
 30
-1.6689300537109375e-06
 11
32.10551452636719
 21
103.51275634765625
 31
-1.6689300537109375e-06
  0
LINE
  8
0
 10
33.43354797363281
 20
104.60265350341797
 30
-1.6689300537109375e-06
 11
33.26515579223633
 21
104.28760528564453
 31
-1.6689300537109375e-06
  0
LINE
  8
0
 10
32.762393951416016
 20
103.78484344482422
 30
-1.6689300537109375e-06
 11
33.038536071777344
 21
104.01146697998047
 31
-1.6689300537109375e-06
  0
LINE
  8
0
 10
33.572261810302734
 20
105.29999542236328
 30
-1.6689300537109375e-06
 11
33.53724670410156
 21
105.65550231933594
 31
-1.6689300537109375e-06
  0
LINE
  8
0
 10
33.26515579223633
 20
104.28760528564453
 30
-1.6689300537109375e-06
 11
33.038536071777344
 21
104.01146697998047
 31
-1.6689300537109375e-06
  0
LINE
  8
0
 10
32.762393951416016
 20
103.78484344482422
 30
-1.6689300537109375e-06
 11
32.44735336303711
 21
103.61644744873047
 31
-1.6689300537109375e-06
  0
LINE
  8
0
 10
32.44735336303711
 20
106.9835433959961
 30
-1.6689300537109375e-06
 11
32.105506896972656
 21
107.08724212646484
 31
-1.6689300537109375e-06
  0
LINE
  8
0
 10
33.43354797363281
 20
104.60265350341797
 30
-1.6689300537109375e-06
 11
33.53724670410156
 21
104.94449615478516
 31
-1.6689300537109375e-06
  0
LINE
  8
0
 10
32.44735336303711
 20
106.9835433959961
 30
-1.6689300537109375e-06
 11
32.762393951416016
 21
106.81515502929688
 31
-1.6689300537109375e-06
  0
LINE
  8
0
 10
33.03853225708008
 20
106.58853149414062
 30
-1.6689300537109375e-06
 11
33.26515197753906
 21
106.31239318847656
 31
-1.6689300537109375e-06
  0
LINE
  8
0
 10
29.962757110595703
 20
105.65550231933594
 30
-1.6689300537109375e-06
 11
29.92774200439453
 21
105.29999542236328
 31
-1.6689300537109375e-06
  0
LINE
  8
0
 10
29.962757110595703
 20
105.65550231933594
 30
-1.6689300537109375e-06
 11
30.066455841064453
 21
105.99734497070312
 31
-1.6689300537109375e-06
  0
LINE
  8
0
 10
30.234848022460938
 20
106.31239318847656
 30
-1.6689300537109375e-06
 11
30.066455841064453
 21
105.99734497070312
 31
-1.6689300537109375e-06
  0
LINE
  8
0
 10
30.234848022460938
 20
106.31239318847656
 30
-1.6689300537109375e-06
 11
30.461471557617188
 21
106.58853149414062
 31
-1.6689300537109375e-06
  0
LINE
  8
0
 10
30.461471557617188
 20
106.58853149414062
 30
-1.6689300537109375e-06
 11
30.73760986328125
 21
106.81515502929688
 31
-1.6689300537109375e-06
  0
LINE
  8
0
 10
31.052650451660156
 20
106.9835433959961
 30
-1.6689300537109375e-06
 11
30.73760986328125
 21
106.81515502929688
 31
-1.6689300537109375e-06
  0
LINE
  8
0
 10
31.052650451660156
 20
106.9835433959961
 30
-1.6689300537109375e-06
 11
31.39449691772461
 21
107.08724212646484
 31
-1.6689300537109375e-06
  0
LINE
  8
0
 10
31.75
 20
107.12226104736328
 30
-1.6689300537109375e-06
 11
31.39449691772461
 21
107.08724212646484
 31
-1.6689300537109375e-06
  0
LINE
  8
0
 10
33.53724670410156
 20
105.65550231933594
 30
-1.6689300537109375e-06
 11
33.43354797363281
 21
105.99734497070312
 31
-1.6689300537109375e-06
  0
LINE
  8
0
 10
31.75
 20
107.12226104736328
 30
-1.6689300537109375e-06
 11
32.105506896972656
 21
107.08724212646484
 31
-1.6689300537109375e-06
  0
LINE
  8
0
 10
33.26515197753906
 20
106.31239318847656
 30
-1.6689300537109375e-06
 11
33.43354797363281
 21
105.99734497070312
 31
-1.6689300537109375e-06
  0
LINE
  8
0
 10
33.03853225708008
 20
106.58853149414062
 30
-1.6689300537109375e-06
 11
32.762393951416016
 21
106.81515502929688
 31
-1.6689300537109375e-06
  0
LINE
  8
0
 10
31.394493103027344
 20
103.51275634765625
 30
-1.6689300537109375e-06
 11
31.75
 21
103.47774505615234
 31
-1.6689300537109375e-06
  0
LINE
  8
0
 10
31.052650451660156
 20
103.61644744873047
 30
-1.6689300537109375e-06
 11
31.394493103027344
 21
103.51275634765625
 31
-1.6689300537109375e-06
  0
LINE
  8
0
 10
31.052650451660156
 20
103.61644744873047
 30
-1.6689300537109375e-06
 11
30.73760986328125
 21
103.78484344482422
 31
-1.6689300537109375e-06
  0
LINE
  8
0
 10
30.461467742919922
 20
104.01146697998047
 30
-1.6689300537109375e-06
 11
30.73760986328125
 21
103.78484344482422
 31
-1.6689300537109375e-06
  0
LINE
  8
0
 10
30.234848022460938
 20
104.28760528564453
 30
-1.6689300537109375e-06
 11
30.461467742919922
 21
104.01146697998047
 31
-1.6689300537109375e-06
  0
LINE
  8
0
 10
30.066455841064453
 20
104.60265350341797
 30
-1.6689300537109375e-06
 11
30.234848022460938
 21
104.28760528564453
 31
-1.6689300537109375e-06
  0
LINE
  8
0
 10
29.962757110595703
 20
104.94449615478516
 30
-1.6689300537109375e-06
 11
30.066455841064453
 21
104.60265350341797
 31
-1.6689300537109375e-06
  0
LINE
  8
0
 10
29.962757110595703
 20
104.94449615478516
 30
-1.6689300537109375e-06
 11
29.92774200439453
 21
105.29999542236328
 31
-1.6689300537109375e-06
  0
ENDSEC
  0
EOF
