  0
SECTION
  2
HEADER
  9
$ACADVER
  1
AC1009
  9
$INSBASE
 10
0.0
 20
0.0
 30
0.0
  9
$EXTMIN
 10
0.0
 20
0.0
 30
0.0
  9
$EXTMAX
 10
0.0
 20
0.0
 30
0.0
  0
ENDSEC
  0
SECTION
  2
TABLES
  0
TABLE
  2
VPORT
 70
1
  0
VPORT
  2
*ACTIVE
 70
0
 10
0.0
 20
0.0
 11
1.0
 21
1.0
 12
-5.0
 22
1.0
 13
0.0
 23
0.0
 14
0.1
 24
0.1
 15
0.1
 25
0.1
 16
0.0
 26
0.0
 36
1.0
 17
0.0
 27
0.0
 37
0.0
 40
10.0
 41
1.0
 42
50.0
 43
0.0
 44
0.0
 50
0.0
 51
0.0
 71
0
 72
100
 73
1
 74
1
 75
0
 76
0
 77
0
 78
0
  0
ENDTAB
  0
TABLE
  2
LTYPE
 70
8
  0
LTYPE
  2
CONTINUOUS
 70
0
  3
Solid line
 72
65
 73
0
 40
0.0
  0
LTYPE
  2
DOT
 70
0
  3
. . . . . . .
 72
65
 73
2
 40
0.25
 49
0.0
 49
-0.25
  0
LTYPE
  2
DASHED
 70
0
  3
__ __ __ __ __
 72
65
 73
2
 40
0.8
 49
0.5
 49
-0.3
  0
LTYPE
  2
DASHDOT
 70
0
  3
__ . __ . __ .
 72
65
 73
4
 40
1.0
 49
0.5
 49
-0.25
 49
0.0
 49
-0.25
  0
LTYPE
  2
DIVIDE
 70
0
  3
____ . . ____ . . 
 72
65
 73
6
 40
1.25
 49
0.5
 49
-0.25
 49
0.0
 49
-0.25
 49
0.0
 49
-0.25
  0
LTYPE
  2
BORDER
 70
0
  3
__ __ . __ __ . 
 72
65
 73
6
 40
1.75
 49
0.5
 49
-0.25
 49
0.5
 49
-0.25
 49
0.0
 49
-0.25
  0
LTYPE
  2
HIDDEN
 70
0
  3
__ __ __ __ __
 72
65
 73
2
 40
0.4
 49
0.25
 49
-0.25
  0
LTYPE
  2
CENTER
 70
0
  3
____ _ ____ _ __
 72
65
 73
4
 40
2.0
 49
1.25
 49
-0.25
 49
0.25
 49
-0.25
  0
ENDTAB
  0
TABLE
  2
LAYER
 70
1
  0
LAYER
  2
PYDXF
 70
64
 62
7
  6
continuous
  0
ENDTAB
  0
TABLE
  2
STYLE
 70
1
  0
STYLE
  2
STANDARD
 70
0
 40
0
 41
1.0
 50
0.0
 71
0
 42
1
 3
ARIAL.TTF
 4

  0
ENDTAB
  0
TABLE
  2
VIEW
 70
1
  0
VIEW
  2
BF_TOPVIEW
 70
0
 40
120.0
 10
0.0
 20
0.0
 41
200.0
 11
0.0
 21
0.0
 31
1.0
 12
0.0
 22
0.0
 32
0.0
 42
50.0
 43
0.0
 44
0.0
 50
0.0
 71
0
  0
ENDTAB
  0
ENDSEC
  0
SECTION
  2
BLOCKS
  0
ENDSEC
  0
SECTION
  2
ENTITIES
  0
LINE
  8
0
 10
142.0
 20
2.86102294921875e-06
 30
-1.0728836059570312e-05
 11
143.7558135986328
 21
0.17293834686279297
 31
-1.0728836059570312e-05
  0
LINE
  8
0
 10
143.7558135986328
 20
0.17293834686279297
 30
-1.0728836059570312e-05
 11
145.44415283203125
 21
0.685084342956543
 31
-1.0728836059570312e-05
  0
LINE
  8
0
 10
145.44415283203125
 20
0.685084342956543
 30
-1.0728836059570312e-05
 11
147.0001220703125
 21
1.5167732238769531
 31
-1.0728836059570312e-05
  0
LINE
  8
0
 10
147.0001220703125
 20
1.5167732238769531
 30
-1.0728836059570312e-05
 11
148.36395263671875
 21
2.6360435485839844
 31
-1.0728836059570312e-05
  0
LINE
  8
0
 10
148.36395263671875
 20
2.6360435485839844
 30
-1.0728836059570312e-05
 11
149.48321533203125
 21
3.9998741149902344
 31
-1.0728836059570312e-05
  0
LINE
  8
0
 10
149.48321533203125
 20
3.9998741149902344
 30
-1.0728836059570312e-05
 11
150.31491088867188
 21
5.555850982666016
 31
-1.0728836059570312e-05
  0
LINE
  8
0
 10
150.31491088867188
 20
5.555850982666016
 30
-1.0728836059570312e-05
 11
150.82705688476562
 21
7.244190216064453
 31
-1.0728836059570312e-05
  0
LINE
  8
0
 10
150.82705688476562
 20
7.244190216064453
 30
-1.0728836059570312e-05
 11
151.0
 21
9.000003814697266
 31
-1.0728836059570312e-05
  0
LINE
  8
0
 10
129.23074340820312
 20
87.39551544189453
 30
-1.0728836059570312e-05
 11
127.69999694824219
 21
87.69999694824219
 31
-1.0728836059570312e-05
  0
LINE
  8
0
 10
129.23074340820312
 20
87.39551544189453
 30
-1.0728836059570312e-05
 11
130.52842712402344
 21
86.52842712402344
 31
-1.0728836059570312e-05
  0
LINE
  8
0
 10
127.69999694824219
 20
23.300003051757812
 30
-1.0728836059570312e-05
 11
129.23074340820312
 21
23.60448455810547
 31
-1.0728836059570312e-05
  0
LINE
  8
0
 10
130.52842712402344
 20
86.52842712402344
 30
-1.0728836059570312e-05
 11
131.39552307128906
 21
85.23072814941406
 31
-1.0728836059570312e-05
  0
LINE
  8
0
 10
131.39552307128906
 20
85.23072814941406
 30
-1.0728836059570312e-05
 11
131.6999969482422
 21
83.69999694824219
 31
-1.0728836059570312e-05
  0
LINE
  8
0
 10
131.39552307128906
 20
25.769271850585938
 30
-1.0728836059570312e-05
 11
131.6999969482422
 21
27.300003051757812
 31
-1.0728836059570312e-05
  0
LINE
  8
0
 10
131.6999969482422
 20
83.69999694824219
 30
-1.0728836059570312e-05
 11
131.6999969482422
 21
27.300003051757812
 31
-1.0728836059570312e-05
  0
LINE
  8
0
 10
131.39552307128906
 20
25.769271850585938
 30
-1.0728836059570312e-05
 11
130.52842712402344
 21
24.471572875976562
 31
-1.0728836059570312e-05
  0
LINE
  8
0
 10
129.23074340820312
 20
23.60448455810547
 30
-1.0728836059570312e-05
 11
130.52842712402344
 21
24.471572875976562
 31
-1.0728836059570312e-05
  0
LINE
  8
0
 10
142.08729553222656
 20
89.4123306274414
 30
9.298324584960938e-06
 11
141.55551147460938
 21
89.40304565429688
 31
9.298324584960938e-06
  0
LINE
  8
0
 10
141.55551147460938
 20
89.40304565429688
 30
9.298324584960938e-06
 11
141.0526123046875
 21
89.2298812866211
 31
9.298324584960938e-06
  0
LINE
  8
0
 10
141.0526123046875
 20
89.2298812866211
 30
9.298324584960938e-06
 11
140.62783813476562
 21
88.9097900390625
 31
9.298324584960938e-06
  0
LINE
  8
0
 10
140.62783813476562
 20
88.9097900390625
 30
9.298324584960938e-06
 11
140.32275390625
 21
88.4740982055664
 31
9.298324584960938e-06
  0
LINE
  8
0
 10
140.32275390625
 20
88.4740982055664
 30
9.298324584960938e-06
 11
140.167236328125
 21
87.96546173095703
 31
9.298324584960938e-06
  0
LINE
  8
0
 10
19.299999237060547
 20
83.69999694824219
 30
-1.0728836059570312e-05
 11
19.604480743408203
 21
85.23072814941406
 31
-1.0728836059570312e-05
  0
LINE
  8
0
 10
20.471572875976562
 20
86.52842712402344
 30
-1.0728836059570312e-05
 11
21.769264221191406
 21
87.39551544189453
 31
-1.0728836059570312e-05
  0
LINE
  8
0
 10
23.299999237060547
 20
23.300003051757812
 30
-1.0728836059570312e-05
 11
21.769264221191406
 21
23.60448455810547
 31
-1.0728836059570312e-05
  0
LINE
  8
0
 10
19.604480743408203
 20
85.23072814941406
 30
-1.0728836059570312e-05
 11
20.471572875976562
 21
86.52842712402344
 31
-1.0728836059570312e-05
  0
LINE
  8
0
 10
19.299999237060547
 20
83.69999694824219
 30
-1.0728836059570312e-05
 11
19.299999237060547
 21
27.300003051757812
 31
-1.0728836059570312e-05
  0
LINE
  8
0
 10
145.09664916992188
 20
90.70610809326172
 30
9.298324584960938e-06
 11
144.941162109375
 21
90.19747161865234
 31
9.298324584960938e-06
  0
LINE
  8
0
 10
144.941162109375
 20
90.19747161865234
 30
9.298324584960938e-06
 11
144.63607788085938
 21
89.76177978515625
 31
9.298324584960938e-06
  0
LINE
  8
0
 10
144.63607788085938
 20
89.76177978515625
 30
9.298324584960938e-06
 11
144.2113037109375
 21
89.44168853759766
 31
9.298324584960938e-06
  0
LINE
  8
0
 10
144.2113037109375
 20
89.44168853759766
 30
9.298324584960938e-06
 11
143.70840454101562
 21
89.26852416992188
 31
9.298324584960938e-06
  0
LINE
  8
0
 10
143.70840454101562
 20
89.26852416992188
 30
9.298324584960938e-06
 11
143.17660522460938
 21
89.25923919677734
 31
9.298324584960938e-06
  0
LINE
  8
0
 10
3.7322463989257812
 20
110.0000228881836
 30
-1.0728836059570312e-05
 11
3.7322463989257812
 21
107.4222640991211
 31
-1.0728836059570312e-05
  0
LINE
  8
0
 10
3.905181884765625
 20
111.7558364868164
 30
-1.0728836059570312e-05
 11
4.417327880859375
 21
113.44417572021484
 31
-1.0728836059570312e-05
  0
LINE
  8
0
 10
10.976432800292969
 20
118.82708740234375
 30
-1.0728836059570312e-05
 11
12.732250213623047
 21
119.0000228881836
 31
-1.0728836059570312e-05
  0
LINE
  8
0
 10
7.2441864013671875
 20
0.17293834686279297
 30
-1.0728836059570312e-05
 11
5.55584716796875
 21
0.685084342956543
 31
-1.0728836059570312e-05
  0
LINE
  8
0
 10
140.97659301757812
 20
49.17533874511719
 30
9.298324584960938e-06
 11
151.0
 21
47.65530014038086
 31
-1.0728836059570312e-05
  0
LINE
  8
0
 10
7.2441864013671875
 20
0.17293834686279297
 30
-1.0728836059570312e-05
 11
9.0
 21
2.86102294921875e-06
 31
-1.0728836059570312e-05
  0
LINE
  8
0
 10
5.55584716796875
 20
0.685084342956543
 30
-1.0728836059570312e-05
 11
3.9998703002929688
 21
1.5167732238769531
 31
-1.0728836059570312e-05
  0
LINE
  8
0
 10
21.769264221191406
 20
87.39551544189453
 30
-1.0728836059570312e-05
 11
23.299999237060547
 21
87.69999694824219
 31
-1.0728836059570312e-05
  0
LINE
  8
0
 10
1.5167770385742188
 20
3.9998741149902344
 30
-1.0728836059570312e-05
 11
0.6850814819335938
 21
5.555850982666016
 31
-1.0728836059570312e-05
  0
LINE
  8
0
 10
1.5167770385742188
 20
3.9998741149902344
 30
-1.0728836059570312e-05
 11
2.6360397338867188
 21
2.6360435485839844
 31
-1.0728836059570312e-05
  0
LINE
  8
0
 10
3.9998703002929688
 20
1.5167732238769531
 30
-1.0728836059570312e-05
 11
2.6360397338867188
 21
2.6360435485839844
 31
-1.0728836059570312e-05
  0
LINE
  8
0
 10
0.6850814819335938
 20
5.555850982666016
 30
-1.0728836059570312e-05
 11
0.17293548583984375
 21
7.244190216064453
 31
-1.0728836059570312e-05
  0
LINE
  8
0
 10
140.2539520263672
 20
68.46361541748047
 30
9.298324584960938e-06
 11
140.76260375976562
 21
68.30811309814453
 31
9.298324584960938e-06
  0
LINE
  8
0
 10
140.76260375976562
 20
68.30811309814453
 30
9.298324584960938e-06
 11
141.1982879638672
 21
68.00304412841797
 31
9.298324584960938e-06
  0
LINE
  8
0
 10
141.1982879638672
 20
68.00304412841797
 30
9.298324584960938e-06
 11
141.51837158203125
 21
67.5782699584961
 31
9.298324584960938e-06
  0
LINE
  8
0
 10
141.51837158203125
 20
67.5782699584961
 30
9.298324584960938e-06
 11
141.6915283203125
 21
67.07537078857422
 31
9.298324584960938e-06
  0
LINE
  8
0
 10
141.6915283203125
 20
67.07537078857422
 30
9.298324584960938e-06
 11
141.7008056640625
 21
66.54357147216797
 31
9.298324584960938e-06
  0
LINE
  8
0
 10
138.65603637695312
 20
68.77220153808594
 30
9.298324584960938e-06
 11
139.1646728515625
 21
68.61669921875
 31
9.298324584960938e-06
  0
LINE
  8
0
 10
138.65603637695312
 20
68.77220153808594
 30
9.298324584960938e-06
 11
138.2203369140625
 21
69.0772705078125
 31
9.298324584960938e-06
  0
LINE
  8
0
 10
138.2203369140625
 20
69.0772705078125
 30
9.298324584960938e-06
 11
137.90025329589844
 21
69.50204467773438
 31
9.298324584960938e-06
  0
LINE
  8
0
 10
137.90025329589844
 20
69.50204467773438
 30
9.298324584960938e-06
 11
137.72708129882812
 21
70.00494384765625
 31
9.298324584960938e-06
  0
LINE
  8
0
 10
137.72708129882812
 20
70.00494384765625
 30
9.298324584960938e-06
 11
137.71780395507812
 21
70.5367431640625
 31
9.298324584960938e-06
  0
LINE
  8
0
 10
9.947395324707031
 20
89.2298812866211
 30
9.298324584960938e-06
 11
10.372169494628906
 21
88.9097900390625
 31
9.298324584960938e-06
  0
LINE
  8
0
 10
20.471572875976562
 20
24.471572875976562
 30
-1.0728836059570312e-05
 11
19.604480743408203
 21
25.769271850585938
 31
-1.0728836059570312e-05
  0
LINE
  8
0
 10
21.769264221191406
 20
23.60448455810547
 30
-1.0728836059570312e-05
 11
20.471572875976562
 21
24.471572875976562
 31
-1.0728836059570312e-05
  0
LINE
  8
0
 10
8.912704467773438
 20
89.4123306274414
 30
9.298324584960938e-06
 11
9.444496154785156
 21
89.40304565429688
 31
9.298324584960938e-06
  0
LINE
  8
0
 10
10.67724609375
 20
88.4740982055664
 30
9.298324584960938e-06
 11
10.832756042480469
 21
87.96546173095703
 31
9.298324584960938e-06
  0
LINE
  8
0
 10
140.97659301757812
 20
49.17533874511719
 30
9.298324584960938e-06
 11
140.46795654296875
 21
49.33084487915039
 31
9.298324584960938e-06
  0
LINE
  8
0
 10
140.46795654296875
 20
49.33084487915039
 30
9.298324584960938e-06
 11
140.03225708007812
 21
49.63591766357422
 31
9.298324584960938e-06
  0
LINE
  8
0
 10
140.03225708007812
 20
49.63591766357422
 30
9.298324584960938e-06
 11
139.71217346191406
 21
50.06069564819336
 31
9.298324584960938e-06
  0
LINE
  8
0
 10
139.71217346191406
 20
50.06069564819336
 30
9.298324584960938e-06
 11
139.5390167236328
 21
50.563594818115234
 31
9.298324584960938e-06
  0
LINE
  8
0
 10
139.5390167236328
 20
50.563594818115234
 30
9.298324584960938e-06
 11
139.52972412109375
 21
51.09539031982422
 31
9.298324584960938e-06
  0
LINE
  8
0
 10
6.7886962890625
 20
89.44168853759766
 30
9.298324584960938e-06
 11
7.291595458984375
 21
89.26852416992188
 31
9.298324584960938e-06
  0
LINE
  8
0
 10
5.903350830078125
 20
90.70610809326172
 30
9.298324584960938e-06
 11
6.058845520019531
 21
90.19747161865234
 31
9.298324584960938e-06
  0
LINE
  8
0
 10
6.058845520019531
 20
90.19747161865234
 30
9.298324584960938e-06
 11
6.363922119140625
 21
89.76177978515625
 31
9.298324584960938e-06
  0
LINE
  8
0
 10
6.7886962890625
 20
89.44168853759766
 30
9.298324584960938e-06
 11
6.363922119140625
 21
89.76177978515625
 31
9.298324584960938e-06
  0
LINE
  8
0
 10
10.746047973632812
 20
68.46361541748047
 30
9.298324584960938e-06
 11
10.237403869628906
 21
68.30811309814453
 31
9.298324584960938e-06
  0
LINE
  8
0
 10
10.023414611816406
 20
49.17533874511719
 30
9.298324584960938e-06
 11
0.0
 21
47.65530014038086
 31
-1.0728836059570312e-05
  0
LINE
  8
0
 10
7.291595458984375
 20
89.26852416992188
 30
9.298324584960938e-06
 11
7.823402404785156
 21
89.25923919677734
 31
9.298324584960938e-06
  0
LINE
  8
0
 10
0.17293548583984375
 20
7.244190216064453
 30
-1.0728836059570312e-05
 11
0.0
 21
9.000003814697266
 31
-1.0728836059570312e-05
  0
LINE
  8
0
 10
19.299999237060547
 20
27.300003051757812
 30
-1.0728836059570312e-05
 11
19.604480743408203
 21
25.769271850585938
 31
-1.0728836059570312e-05
  0
LINE
  8
0
 10
10.372169494628906
 20
88.9097900390625
 30
9.298324584960938e-06
 11
10.67724609375
 21
88.4740982055664
 31
9.298324584960938e-06
  0
LINE
  8
0
 10
9.947395324707031
 20
89.2298812866211
 30
9.298324584960938e-06
 11
9.444496154785156
 21
89.40304565429688
 31
9.298324584960938e-06
  0
LINE
  8
0
 10
141.7008056640625
 20
66.54357147216797
 30
9.298324584960938e-06
 11
139.52972412109375
 21
51.09539031982422
 31
9.298324584960938e-06
  0
LINE
  8
0
 10
140.2539520263672
 20
68.46361541748047
 30
9.298324584960938e-06
 11
139.1646728515625
 21
68.61669921875
 31
9.298324584960938e-06
  0
LINE
  8
0
 10
140.167236328125
 20
87.96546173095703
 30
9.298324584960938e-06
 11
137.71780395507812
 21
70.5367431640625
 31
9.298324584960938e-06
  0
LINE
  8
0
 10
142.08729553222656
 20
89.4123306274414
 30
9.298324584960938e-06
 11
143.17660522460938
 21
89.25923919677734
 31
9.298324584960938e-06
  0
LINE
  8
0
 10
145.09664916992188
 20
90.70610809326172
 30
9.298324584960938e-06
 11
147.26776123046875
 21
106.15428161621094
 31
9.298324584960938e-06
  0
LINE
  8
0
 10
138.2677459716797
 20
119.0000228881836
 30
-1.0728836059570312e-05
 11
140.0235595703125
 21
118.82708740234375
 31
-1.0728836059570312e-05
  0
LINE
  8
0
 10
140.0235595703125
 20
118.82708740234375
 30
-1.0728836059570312e-05
 11
141.7119140625
 21
118.31494140625
 31
-1.0728836059570312e-05
  0
LINE
  8
0
 10
141.7119140625
 20
118.31494140625
 30
-1.0728836059570312e-05
 11
143.26788330078125
 21
117.48324584960938
 31
-1.0728836059570312e-05
  0
LINE
  8
0
 10
143.26788330078125
 20
117.48324584960938
 30
-1.0728836059570312e-05
 11
144.6317138671875
 21
116.36398315429688
 31
-1.0728836059570312e-05
  0
LINE
  8
0
 10
144.6317138671875
 20
116.36398315429688
 30
-1.0728836059570312e-05
 11
145.7509765625
 21
115.00015258789062
 31
-1.0728836059570312e-05
  0
LINE
  8
0
 10
145.7509765625
 20
115.00015258789062
 30
-1.0728836059570312e-05
 11
146.58267211914062
 21
113.44417572021484
 31
-1.0728836059570312e-05
  0
LINE
  8
0
 10
146.58267211914062
 20
113.44417572021484
 30
-1.0728836059570312e-05
 11
147.09481811523438
 21
111.7558364868164
 31
-1.0728836059570312e-05
  0
LINE
  8
0
 10
147.09481811523438
 20
111.7558364868164
 30
-1.0728836059570312e-05
 11
147.26776123046875
 21
110.0000228881836
 31
-1.0728836059570312e-05
  0
LINE
  8
0
 10
151.0
 20
9.000003814697266
 30
-1.0728836059570312e-05
 11
151.0
 21
47.65530014038086
 31
-1.0728836059570312e-05
  0
LINE
  8
0
 10
147.26776123046875
 20
107.4222640991211
 30
-1.0728836059570312e-05
 11
147.26776123046875
 21
110.0000228881836
 31
-1.0728836059570312e-05
  0
LINE
  8
0
 10
10.237403869628906
 20
68.30811309814453
 30
9.298324584960938e-06
 11
9.801712036132812
 21
68.00304412841797
 31
9.298324584960938e-06
  0
LINE
  8
0
 10
9.801712036132812
 20
68.00304412841797
 30
9.298324584960938e-06
 11
9.481620788574219
 21
67.5782699584961
 31
9.298324584960938e-06
  0
LINE
  8
0
 10
9.481620788574219
 20
67.5782699584961
 30
9.298324584960938e-06
 11
9.308464050292969
 21
67.07537078857422
 31
9.298324584960938e-06
  0
LINE
  8
0
 10
9.308464050292969
 20
67.07537078857422
 30
9.298324584960938e-06
 11
9.299186706542969
 21
66.54357147216797
 31
9.298324584960938e-06
  0
LINE
  8
0
 10
12.343971252441406
 20
68.77220153808594
 30
9.298324584960938e-06
 11
11.835334777832031
 21
68.61669921875
 31
9.298324584960938e-06
  0
LINE
  8
0
 10
12.343971252441406
 20
68.77220153808594
 30
9.298324584960938e-06
 11
12.779659271240234
 21
69.0772705078125
 31
9.298324584960938e-06
  0
LINE
  8
0
 10
12.779659271240234
 20
69.0772705078125
 30
9.298324584960938e-06
 11
13.099750518798828
 21
69.50204467773438
 31
9.298324584960938e-06
  0
LINE
  8
0
 10
13.099750518798828
 20
69.50204467773438
 30
9.298324584960938e-06
 11
13.27291488647461
 21
70.00494384765625
 31
9.298324584960938e-06
  0
LINE
  8
0
 10
13.27291488647461
 20
70.00494384765625
 30
9.298324584960938e-06
 11
13.282196044921875
 21
70.5367431640625
 31
9.298324584960938e-06
  0
LINE
  8
0
 10
10.023414611816406
 20
49.17533874511719
 30
9.298324584960938e-06
 11
10.53204345703125
 21
49.33084487915039
 31
9.298324584960938e-06
  0
LINE
  8
0
 10
10.53204345703125
 20
49.33084487915039
 30
9.298324584960938e-06
 11
10.967735290527344
 21
49.63591766357422
 31
9.298324584960938e-06
  0
LINE
  8
0
 10
10.967735290527344
 20
49.63591766357422
 30
9.298324584960938e-06
 11
11.287826538085938
 21
50.06069564819336
 31
9.298324584960938e-06
  0
LINE
  8
0
 10
11.287826538085938
 20
50.06069564819336
 30
9.298324584960938e-06
 11
11.460983276367188
 21
50.563594818115234
 31
9.298324584960938e-06
  0
LINE
  8
0
 10
11.460983276367188
 20
50.563594818115234
 30
9.298324584960938e-06
 11
11.47027587890625
 21
51.09539031982422
 31
9.298324584960938e-06
  0
LINE
  8
0
 10
9.299186706542969
 20
66.54357147216797
 30
9.298324584960938e-06
 11
11.47027587890625
 21
51.09539031982422
 31
9.298324584960938e-06
  0
LINE
  8
0
 10
10.746047973632812
 20
68.46361541748047
 30
9.298324584960938e-06
 11
11.835334777832031
 21
68.61669921875
 31
9.298324584960938e-06
  0
LINE
  8
0
 10
10.832756042480469
 20
87.96546173095703
 30
9.298324584960938e-06
 11
13.282196044921875
 21
70.5367431640625
 31
9.298324584960938e-06
  0
LINE
  8
0
 10
8.912704467773438
 20
89.4123306274414
 30
9.298324584960938e-06
 11
7.823402404785156
 21
89.25923919677734
 31
9.298324584960938e-06
  0
LINE
  8
0
 10
5.903350830078125
 20
90.70610809326172
 30
9.298324584960938e-06
 11
3.7322463989257812
 21
106.15428161621094
 31
9.298324584960938e-06
  0
LINE
  8
0
 10
0.0
 20
47.65530014038086
 30
-1.0728836059570312e-05
 11
0.0
 21
9.000003814697266
 31
-1.0728836059570312e-05
  0
LINE
  8
0
 10
127.69999694824219
 20
87.69999694824219
 30
-1.0728836059570312e-05
 11
23.299999237060547
 21
87.69999694824219
 31
-1.0728836059570312e-05
  0
LINE
  8
0
 10
127.69999694824219
 20
23.300003051757812
 30
-1.0728836059570312e-05
 11
23.299999237060547
 21
23.300003051757812
 31
-1.0728836059570312e-05
  0
LINE
  8
0
 10
142.0
 20
2.86102294921875e-06
 30
-1.0728836059570312e-05
 11
9.0
 21
2.86102294921875e-06
 31
-1.0728836059570312e-05
  0
LINE
  8
0
 10
4.417327880859375
 20
113.44417572021484
 30
-1.0728836059570312e-05
 11
5.2490234375
 21
115.00015258789062
 31
-1.0728836059570312e-05
  0
LINE
  8
0
 10
5.2490234375
 20
115.00015258789062
 30
-1.0728836059570312e-05
 11
6.3682861328125
 21
116.36398315429688
 31
-1.0728836059570312e-05
  0
LINE
  8
0
 10
6.3682861328125
 20
116.36398315429688
 30
-1.0728836059570312e-05
 11
7.73211669921875
 21
117.48324584960938
 31
-1.0728836059570312e-05
  0
LINE
  8
0
 10
7.73211669921875
 20
117.48324584960938
 30
-1.0728836059570312e-05
 11
9.288093566894531
 21
118.31494140625
 31
-1.0728836059570312e-05
  0
LINE
  8
0
 10
9.288093566894531
 20
118.31494140625
 30
-1.0728836059570312e-05
 11
10.976432800292969
 21
118.82708740234375
 31
-1.0728836059570312e-05
  0
LINE
  8
0
 10
3.7322463989257812
 20
110.0000228881836
 30
-1.0728836059570312e-05
 11
3.905181884765625
 21
111.7558364868164
 31
-1.0728836059570312e-05
  0
LINE
  8
0
 10
3.7322463989257812
 20
106.15428161621094
 30
9.298324584960938e-06
 11
3.7322463989257812
 21
107.4222640991211
 31
-1.0728836059570312e-05
  0
LINE
  8
0
 10
138.2677459716797
 20
119.0000228881836
 30
-1.0728836059570312e-05
 11
12.732250213623047
 21
119.0000228881836
 31
-1.0728836059570312e-05
  0
LINE
  8
0
 10
147.26776123046875
 20
106.15428161621094
 30
9.298324584960938e-06
 11
147.26776123046875
 21
107.4222640991211
 31
-1.0728836059570312e-05
  0
ENDSEC
  0
EOF
