  0
SECTION
  2
HEADER
  9
$ACADVER
  1
AC1009
  9
$INSBASE
 10
0.0
 20
0.0
 30
0.0
  9
$EXTMIN
 10
0.0
 20
0.0
 30
0.0
  9
$EXTMAX
 10
0.0
 20
0.0
 30
0.0
  0
ENDSEC
  0
SECTION
  2
TABLES
  0
TABLE
  2
VPORT
 70
1
  0
VPORT
  2
*ACTIVE
 70
0
 10
0.0
 20
0.0
 11
1.0
 21
1.0
 12
-5.0
 22
1.0
 13
0.0
 23
0.0
 14
0.1
 24
0.1
 15
0.1
 25
0.1
 16
0.0
 26
0.0
 36
1.0
 17
0.0
 27
0.0
 37
0.0
 40
10.0
 41
1.0
 42
50.0
 43
0.0
 44
0.0
 50
0.0
 51
0.0
 71
0
 72
100
 73
1
 74
1
 75
0
 76
0
 77
0
 78
0
  0
ENDTAB
  0
TABLE
  2
LTYPE
 70
8
  0
LTYPE
  2
CONTINUOUS
 70
0
  3
Solid line
 72
65
 73
0
 40
0.0
  0
LTYPE
  2
DOT
 70
0
  3
. . . . . . .
 72
65
 73
2
 40
0.25
 49
0.0
 49
-0.25
  0
LTYPE
  2
DASHED
 70
0
  3
__ __ __ __ __
 72
65
 73
2
 40
0.8
 49
0.5
 49
-0.3
  0
LTYPE
  2
DASHDOT
 70
0
  3
__ . __ . __ .
 72
65
 73
4
 40
1.0
 49
0.5
 49
-0.25
 49
0.0
 49
-0.25
  0
LTYPE
  2
DIVIDE
 70
0
  3
____ . . ____ . . 
 72
65
 73
6
 40
1.25
 49
0.5
 49
-0.25
 49
0.0
 49
-0.25
 49
0.0
 49
-0.25
  0
LTYPE
  2
BORDER
 70
0
  3
__ __ . __ __ . 
 72
65
 73
6
 40
1.75
 49
0.5
 49
-0.25
 49
0.5
 49
-0.25
 49
0.0
 49
-0.25
  0
LTYPE
  2
HIDDEN
 70
0
  3
__ __ __ __ __
 72
65
 73
2
 40
0.4
 49
0.25
 49
-0.25
  0
LTYPE
  2
CENTER
 70
0
  3
____ _ ____ _ __
 72
65
 73
4
 40
2.0
 49
1.25
 49
-0.25
 49
0.25
 49
-0.25
  0
ENDTAB
  0
TABLE
  2
LAYER
 70
1
  0
LAYER
  2
PYDXF
 70
64
 62
7
  6
continuous
  0
ENDTAB
  0
TABLE
  2
STYLE
 70
1
  0
STYLE
  2
STANDARD
 70
0
 40
0
 41
1.0
 50
0.0
 71
0
 42
1
 3
ARIAL.TTF
 4

  0
ENDTAB
  0
TABLE
  2
VIEW
 70
1
  0
VIEW
  2
BF_TOPVIEW
 70
0
 40
120.0
 10
0.0
 20
0.0
 41
200.0
 11
0.0
 21
0.0
 31
1.0
 12
0.0
 22
0.0
 32
0.0
 42
50.0
 43
0.0
 44
0.0
 50
0.0
 71
0
  0
ENDTAB
  0
ENDSEC
  0
SECTION
  2
BLOCKS
  0
ENDSEC
  0
SECTION
  2
ENTITIES
  0
LINE
  8
0
 10
127.00000762939453
 20
41.5
 30
0.0
 11
126.82707214355469
 21
39.74418640136719
 31
0.0
  0
LINE
  8
0
 10
126.82707214355469
 20
39.74418640136719
 30
0.0
 11
126.3149185180664
 21
38.05584716796875
 31
0.0
  0
LINE
  8
0
 10
126.3149185180664
 20
38.05584716796875
 30
0.0
 11
125.48323059082031
 21
36.49987030029297
 31
0.0
  0
LINE
  8
0
 10
125.48323059082031
 20
36.49987030029297
 30
0.0
 11
124.36396789550781
 21
35.13603973388672
 31
0.0
  0
LINE
  8
0
 10
124.36396789550781
 20
35.13603973388672
 30
0.0
 11
123.00013732910156
 21
34.01676940917969
 31
0.0
  0
LINE
  8
0
 10
123.00013732910156
 20
34.01676940917969
 30
0.0
 11
121.44415283203125
 21
33.185081481933594
 31
0.0
  0
LINE
  8
0
 10
121.44415283203125
 20
33.185081481933594
 30
0.0
 11
119.75581359863281
 21
32.672935485839844
 31
0.0
  0
LINE
  8
0
 10
118.00000762939453
 20
32.5
 30
0.0
 11
119.75581359863281
 21
32.672935485839844
 31
0.0
  0
LINE
  8
0
 10
117.99999237060547
 20
251.5
 30
0.0
 11
119.75580596923828
 21
251.32705688476562
 31
0.0
  0
LINE
  8
0
 10
119.75580596923828
 20
251.32705688476562
 30
0.0
 11
121.44414520263672
 21
250.81491088867188
 31
0.0
  0
LINE
  8
0
 10
121.44414520263672
 20
250.81491088867188
 30
0.0
 11
123.00012969970703
 21
249.98321533203125
 31
0.0
  0
LINE
  8
0
 10
123.00012969970703
 20
249.98321533203125
 30
0.0
 11
124.36395263671875
 21
248.86395263671875
 31
0.0
  0
LINE
  8
0
 10
124.36395263671875
 20
248.86395263671875
 30
0.0
 11
125.48322296142578
 21
247.5001220703125
 31
0.0
  0
LINE
  8
0
 10
125.48322296142578
 20
247.5001220703125
 30
0.0
 11
126.31491088867188
 21
245.94415283203125
 31
0.0
  0
LINE
  8
0
 10
126.31491088867188
 20
245.94415283203125
 30
0.0
 11
126.82706451416016
 21
244.2558135986328
 31
0.0
  0
LINE
  8
0
 10
126.99999237060547
 20
242.5
 30
0.0
 11
126.82706451416016
 21
244.2558135986328
 31
0.0
  0
LINE
  8
0
 10
127.00000762939453
 20
41.5
 30
0.0
 11
126.99999237060547
 21
242.5
 31
0.0
  0
LINE
  8
0
 10
49.23158645629883
 20
44.11509323120117
 30
0.0
 11
49.00590896606445
 21
43.8698844909668
 31
0.0
  0
LINE
  8
0
 10
49.47885513305664
 20
45.69865036010742
 30
0.0
 11
49.5573616027832
 21
45.37477493286133
 31
0.0
  0
LINE
  8
0
 10
-2.8373962777550332e-05
 20
267.5
 30
0.0
 11
0.1729070395231247
 21
269.25579833984375
 31
0.0
  0
LINE
  8
0
 10
0.1729070395231247
 20
269.25579833984375
 30
0.0
 11
0.6850529313087463
 21
270.94415283203125
 31
0.0
  0
LINE
  8
0
 10
0.6850529313087463
 20
270.94415283203125
 30
0.0
 11
1.5167484283447266
 21
272.5001220703125
 31
0.0
  0
LINE
  8
0
 10
1.5167484283447266
 20
272.5001220703125
 30
0.0
 11
2.6360111236572266
 21
273.86395263671875
 31
0.0
  0
LINE
  8
0
 10
2.6360111236572266
 20
273.86395263671875
 30
0.0
 11
3.9998416900634766
 21
274.98321533203125
 31
0.0
  0
LINE
  8
0
 10
3.9998416900634766
 20
274.98321533203125
 30
0.0
 11
5.555818557739258
 21
275.8149108886719
 31
0.0
  0
LINE
  8
0
 10
5.555818557739258
 20
275.8149108886719
 30
0.0
 11
7.244157791137695
 21
276.3270568847656
 31
0.0
  0
LINE
  8
0
 10
7.506215572357178
 20
19.48832893371582
 30
0.0
 11
7.1885504722595215
 21
19.365121841430664
 31
0.0
  0
LINE
  8
0
 10
14.961331367492676
 20
29.337678909301758
 30
0.0
 11
14.690449714660645
 21
29.53179359436035
 31
0.0
  0
LINE
  8
0
 10
7.1885504722595215
 20
19.365121841430664
 30
0.0
 11
6.905545711517334
 21
19.18913459777832
 31
0.0
  0
LINE
  8
0
 10
6.905545711517334
 20
19.18913459777832
 30
0.0
 11
6.662312984466553
 21
18.961320877075195
 31
0.0
  0
LINE
  8
0
 10
6.662312984466553
 20
18.961320877075195
 30
0.0
 11
6.468198299407959
 21
18.690439224243164
 31
0.0
  0
LINE
  8
0
 10
7.506215572357178
 20
19.48832893371582
 30
0.0
 11
12.19621753692627
 21
27.611658096313477
 31
0.0
  0
LINE
  8
0
 10
16.511655807495117
 20
11.506205558776855
 30
0.0
 11
8.388334274291992
 21
16.19620704650879
 31
0.0
  0
LINE
  8
0
 10
15.365132331848145
 20
28.81144142150879
 30
0.0
 11
15.189152717590332
 21
29.094453811645508
 31
0.0
  0
LINE
  8
0
 10
12.562321662902832
 20
29.180437088012695
 30
0.0
 11
12.368206977844238
 21
28.909555435180664
 31
0.0
  0
LINE
  8
0
 10
49.33867263793945
 20
46.00099563598633
 30
0.0
 11
49.47885513305664
 21
45.69865036010742
 31
0.0
  0
LINE
  8
0
 10
15.4883394241333
 20
28.493783950805664
 30
0.0
 11
23.611661911010742
 21
23.803783416748047
 31
0.0
  0
LINE
  8
0
 10
5.555830001831055
 20
8.185083389282227
 30
0.0
 11
3.9998531341552734
 21
9.016763687133789
 31
0.0
  0
LINE
  8
0
 10
3.9998531341552734
 20
9.016763687133789
 30
0.0
 11
2.6360225677490234
 21
10.136041641235352
 31
0.0
  0
LINE
  8
0
 10
2.6360225677490234
 20
10.136041641235352
 30
0.0
 11
1.5167598724365234
 21
11.499872207641602
 31
0.0
  0
LINE
  8
0
 10
1.5167598724365234
 20
11.499872207641602
 30
0.0
 11
0.6850642561912537
 21
13.055841445922852
 31
0.0
  0
LINE
  8
0
 10
0.6850642561912537
 20
13.055841445922852
 30
0.0
 11
0.1729181557893753
 21
14.744180679321289
 31
0.0
  0
LINE
  8
0
 10
0.1729181557893753
 20
14.744180679321289
 30
0.0
 11
-1.7402404409949668e-05
 21
16.4999942779541
 31
0.0
  0
LINE
  8
0
 10
19.80377769470215
 20
12.388331413269043
 30
0.0
 11
24.4937801361084
 21
20.511661529541016
 31
0.0
  0
LINE
  8
0
 10
34.58378982543945
 20
42.93546676635742
 30
0.0
 11
34.72397232055664
 21
42.63312911987305
 31
0.0
  0
LINE
  8
0
 10
15.4883394241333
 20
28.493783950805664
 30
0.0
 11
15.365132331848145
 21
28.81144142150879
 31
0.0
  0
LINE
  8
0
 10
24.4937686920166
 20
263.48834228515625
 30
0.0
 11
19.80376625061035
 21
271.6116638183594
 31
0.0
  0
LINE
  8
0
 10
15.488329887390137
 20
255.50621032714844
 30
0.0
 11
23.611650466918945
 21
260.1961975097656
 31
0.0
  0
LINE
  8
0
 10
8.388322830200195
 20
267.80377197265625
 30
0.0
 11
16.51164436340332
 21
272.4937744140625
 31
0.0
  0
LINE
  8
0
 10
12.196208000183105
 20
256.3883361816406
 30
0.0
 11
7.506205081939697
 21
264.51165771484375
 31
0.0
  0
LINE
  8
0
 10
6.4681878089904785
 20
265.3095397949219
 30
0.0
 11
6.662302494049072
 21
265.0386657714844
 31
0.0
  0
LINE
  8
0
 10
6.662302494049072
 20
265.0386657714844
 30
0.0
 11
6.9055352210998535
 21
264.81085205078125
 31
0.0
  0
LINE
  8
0
 10
6.9055352210998535
 20
264.81085205078125
 30
0.0
 11
7.188539981842041
 21
264.6348571777344
 31
0.0
  0
LINE
  8
0
 10
14.69044017791748
 20
254.46820068359375
 30
0.0
 11
14.961321830749512
 21
254.6623077392578
 31
0.0
  0
LINE
  8
0
 10
15.189143180847168
 20
254.90553283691406
 30
0.0
 11
14.961321830749512
 21
254.6623077392578
 31
0.0
  0
LINE
  8
0
 10
15.189143180847168
 20
254.90553283691406
 30
0.0
 11
15.36512279510498
 21
255.1885528564453
 31
0.0
  0
LINE
  8
0
 10
15.36512279510498
 20
255.1885528564453
 30
0.0
 11
15.488329887390137
 21
255.50621032714844
 31
0.0
  0
LINE
  8
0
 10
7.188539981842041
 20
264.6348571777344
 30
0.0
 11
7.506205081939697
 21
264.51165771484375
 31
0.0
  0
LINE
  8
0
 10
12.368197441101074
 20
255.09043884277344
 30
0.0
 11
12.562312126159668
 21
254.81954956054688
 31
0.0
  0
LINE
  8
0
 10
12.80554485321045
 20
254.59173583984375
 30
0.0
 11
12.562312126159668
 21
254.81954956054688
 31
0.0
  0
LINE
  8
0
 10
13.088549613952637
 20
254.41575622558594
 30
0.0
 11
12.80554485321045
 21
254.59173583984375
 31
0.0
  0
LINE
  8
0
 10
13.088549613952637
 20
254.41575622558594
 30
0.0
 11
13.4004545211792
 21
254.29835510253906
 31
0.0
  0
LINE
  8
0
 10
13.4004545211792
 20
254.29835510253906
 30
0.0
 11
13.72925090789795
 21
254.24407958984375
 31
0.0
  0
LINE
  8
0
 10
13.72925090789795
 20
254.24407958984375
 30
0.0
 11
14.06232738494873
 21
254.25498962402344
 31
0.0
  0
LINE
  8
0
 10
14.06232738494873
 20
254.25498962402344
 30
0.0
 11
14.386881828308105
 21
254.33065795898438
 31
0.0
  0
LINE
  8
0
 10
14.386881828308105
 20
254.33065795898438
 30
0.0
 11
14.69044017791748
 21
254.46820068359375
 31
0.0
  0
LINE
  8
0
 10
12.196208000183105
 20
256.3883361816406
 30
0.0
 11
12.144076347351074
 21
256.0516357421875
 31
0.0
  0
LINE
  8
0
 10
12.144076347351074
 20
256.0516357421875
 30
0.0
 11
12.154986381530762
 21
255.71853637695312
 31
0.0
  0
LINE
  8
0
 10
12.154986381530762
 20
255.71853637695312
 30
0.0
 11
12.23066234588623
 21
255.39398193359375
 31
0.0
  0
LINE
  8
0
 10
12.23066234588623
 20
255.39398193359375
 30
0.0
 11
12.368197441101074
 21
255.09043884277344
 31
0.0
  0
LINE
  8
0
 10
8.388322830200195
 20
267.80377197265625
 30
0.0
 11
8.051614761352539
 21
267.85589599609375
 31
0.0
  0
LINE
  8
0
 10
8.051614761352539
 20
267.85589599609375
 30
0.0
 11
7.718530654907227
 21
267.8450012207031
 31
0.0
  0
LINE
  8
0
 10
7.718530654907227
 20
267.8450012207031
 30
0.0
 11
7.393983840942383
 21
267.7693176269531
 31
0.0
  0
LINE
  8
0
 10
7.393983840942383
 20
267.7693176269531
 30
0.0
 11
7.090433120727539
 21
267.6318054199219
 31
0.0
  0
LINE
  8
0
 10
7.090433120727539
 20
267.6318054199219
 30
0.0
 11
6.819544315338135
 21
267.43768310546875
 31
0.0
  0
LINE
  8
0
 10
6.819544315338135
 20
267.43768310546875
 30
0.0
 11
6.59173059463501
 21
267.1944274902344
 31
0.0
  0
LINE
  8
0
 10
6.59173059463501
 20
267.1944274902344
 30
0.0
 11
6.415743350982666
 21
266.91143798828125
 31
0.0
  0
LINE
  8
0
 10
6.415743350982666
 20
266.91143798828125
 30
0.0
 11
6.2983574867248535
 21
266.59954833984375
 31
0.0
  0
LINE
  8
0
 10
6.2983574867248535
 20
266.59954833984375
 30
0.0
 11
6.2440667152404785
 21
266.270751953125
 31
0.0
  0
LINE
  8
0
 10
6.2440667152404785
 20
266.270751953125
 30
0.0
 11
6.254976749420166
 21
265.9376525878906
 31
0.0
  0
LINE
  8
0
 10
6.254976749420166
 20
265.9376525878906
 30
0.0
 11
6.330652713775635
 21
265.61309814453125
 31
0.0
  0
LINE
  8
0
 10
6.4681878089904785
 20
265.3095397949219
 30
0.0
 11
6.330652713775635
 21
265.61309814453125
 31
0.0
  0
LINE
  8
0
 10
19.631776809692383
 20
272.9095458984375
 30
0.0
 11
19.769311904907227
 21
272.6059875488281
 31
0.0
  0
LINE
  8
0
 10
19.769311904907227
 20
272.6059875488281
 30
0.0
 11
19.844987869262695
 21
272.2814636230469
 31
0.0
  0
LINE
  8
0
 10
19.844987869262695
 20
272.2814636230469
 30
0.0
 11
19.855897903442383
 21
271.9483642578125
 31
0.0
  0
LINE
  8
0
 10
24.9095401763916
 20
260.3681945800781
 30
0.0
 11
24.605989456176758
 21
260.23065185546875
 31
0.0
  0
LINE
  8
0
 10
24.281442642211914
 20
260.15496826171875
 30
0.0
 11
24.605989456176758
 21
260.23065185546875
 31
0.0
  0
LINE
  8
0
 10
24.281442642211914
 20
260.15496826171875
 30
0.0
 11
23.9483585357666
 21
260.1440734863281
 31
0.0
  0
LINE
  8
0
 10
23.9483585357666
 20
260.1440734863281
 30
0.0
 11
23.611650466918945
 21
260.1961975097656
 31
0.0
  0
LINE
  8
0
 10
19.855897903442383
 20
271.9483642578125
 30
0.0
 11
19.80376625061035
 21
271.6116638183594
 31
0.0
  0
LINE
  8
0
 10
25.53178596496582
 20
262.6904296875
 30
0.0
 11
25.669321060180664
 21
262.38690185546875
 31
0.0
  0
LINE
  8
0
 10
25.744997024536133
 20
262.0623474121094
 30
0.0
 11
25.669321060180664
 21
262.38690185546875
 31
0.0
  0
LINE
  8
0
 10
25.75590705871582
 20
261.729248046875
 30
0.0
 11
25.744997024536133
 21
262.0623474121094
 31
0.0
  0
LINE
  8
0
 10
25.75590705871582
 20
261.729248046875
 30
0.0
 11
25.701616287231445
 21
261.40045166015625
 31
0.0
  0
LINE
  8
0
 10
25.701616287231445
 20
261.40045166015625
 30
0.0
 11
25.584230422973633
 21
261.08856201171875
 31
0.0
  0
LINE
  8
0
 10
25.584230422973633
 20
261.08856201171875
 30
0.0
 11
25.40824317932129
 21
260.8055419921875
 31
0.0
  0
LINE
  8
0
 10
25.40824317932129
 20
260.8055419921875
 30
0.0
 11
25.180429458618164
 21
260.56231689453125
 31
0.0
  0
LINE
  8
0
 10
25.180429458618164
 20
260.56231689453125
 30
0.0
 11
24.9095401763916
 21
260.3681945800781
 31
0.0
  0
LINE
  8
0
 10
24.4937686920166
 20
263.48834228515625
 30
0.0
 11
24.811433792114258
 21
263.3651123046875
 31
0.0
  0
LINE
  8
0
 10
24.811433792114258
 20
263.3651123046875
 30
0.0
 11
25.094438552856445
 21
263.18914794921875
 31
0.0
  0
LINE
  8
0
 10
25.094438552856445
 20
263.18914794921875
 30
0.0
 11
25.337671279907227
 21
262.9613342285156
 31
0.0
  0
LINE
  8
0
 10
25.337671279907227
 20
262.9613342285156
 30
0.0
 11
25.53178596496582
 21
262.6904296875
 31
0.0
  0
LINE
  8
0
 10
16.51164436340332
 20
272.4937744140625
 30
0.0
 11
16.634851455688477
 21
272.8114318847656
 31
0.0
  0
LINE
  8
0
 10
16.634851455688477
 20
272.8114318847656
 30
0.0
 11
16.81083106994629
 21
273.0944519042969
 31
0.0
  0
LINE
  8
0
 10
16.81083106994629
 20
273.0944519042969
 30
0.0
 11
17.038652420043945
 21
273.3376770019531
 31
0.0
  0
LINE
  8
0
 10
17.038652420043945
 20
273.3376770019531
 30
0.0
 11
17.309534072875977
 21
273.53179931640625
 31
0.0
  0
LINE
  8
0
 10
17.309534072875977
 20
273.53179931640625
 30
0.0
 11
17.61309242248535
 21
273.6693420410156
 31
0.0
  0
LINE
  8
0
 10
17.61309242248535
 20
273.6693420410156
 30
0.0
 11
17.937646865844727
 21
273.7449951171875
 31
0.0
  0
LINE
  8
0
 10
17.937646865844727
 20
273.7449951171875
 30
0.0
 11
18.270723342895508
 21
273.75592041015625
 31
0.0
  0
LINE
  8
0
 10
18.270723342895508
 20
273.75592041015625
 30
0.0
 11
18.599519729614258
 21
273.7016296386719
 31
0.0
  0
LINE
  8
0
 10
18.599519729614258
 20
273.7016296386719
 30
0.0
 11
18.91142463684082
 21
273.584228515625
 31
0.0
  0
LINE
  8
0
 10
18.91142463684082
 20
273.584228515625
 30
0.0
 11
19.194429397583008
 21
273.40826416015625
 31
0.0
  0
LINE
  8
0
 10
19.194429397583008
 20
273.40826416015625
 30
0.0
 11
19.43766212463379
 21
273.1804504394531
 31
0.0
  0
LINE
  8
0
 10
19.631776809692383
 20
272.9095458984375
 30
0.0
 11
19.43766212463379
 21
273.1804504394531
 31
0.0
  0
LINE
  8
0
 10
12.562321662902832
 20
29.180437088012695
 30
0.0
 11
12.805554389953613
 21
29.40825080871582
 31
0.0
  0
LINE
  8
0
 10
15.189152717590332
 20
29.094453811645508
 30
0.0
 11
14.961331367492676
 21
29.337678909301758
 31
0.0
  0
LINE
  8
0
 10
19.131908416748047
 20
248.8728485107422
 30
0.0
 11
19.365154266357422
 21
248.6244659423828
 31
0.0
  0
LINE
  8
0
 10
29.921688079833984
 20
247.645751953125
 30
0.0
 11
29.58871078491211
 21
247.65956115722656
 31
0.0
  0
LINE
  8
0
 10
28.468486785888672
 20
232.63128662109375
 30
0.0
 11
28.78139877319336
 21
232.74594116210938
 31
0.0
  0
LINE
  8
0
 10
29.58871078491211
 20
247.65956115722656
 30
0.0
 11
29.259441375732422
 21
247.60816955566406
 31
0.0
  0
LINE
  8
0
 10
31.21627426147461
 20
246.70086669921875
 30
0.0
 11
31.042766571044922
 21
246.9853973388672
 31
0.0
  0
LINE
  8
0
 10
31.330944061279297
 20
246.38795471191406
 30
0.0
 11
31.21627426147461
 21
246.70086669921875
 31
0.0
  0
LINE
  8
0
 10
31.38235092163086
 20
246.05868530273438
 30
0.0
 11
31.368541717529297
 21
245.7257080078125
 31
0.0
  0
LINE
  8
0
 10
28.139232635498047
 20
232.57986450195312
 30
0.0
 11
28.468486785888672
 21
232.63128662109375
 31
0.0
  0
LINE
  8
0
 10
30.817089080810547
 20
247.23060607910156
 30
0.0
 11
30.547908782958984
 21
247.42706298828125
 31
0.0
  0
LINE
  8
0
 10
30.547908782958984
 20
247.42706298828125
 30
0.0
 11
30.24557113647461
 21
247.56724548339844
 31
0.0
  0
LINE
  8
0
 10
30.24557113647461
 20
247.56724548339844
 30
0.0
 11
29.921688079833984
 21
247.645751953125
 31
0.0
  0
LINE
  8
0
 10
31.38235092163086
 20
246.05868530273438
 30
0.0
 11
31.330944061279297
 21
246.38795471191406
 31
0.0
  0
LINE
  8
0
 10
29.64779281616211
 20
233.71665954589844
 30
0.0
 11
29.726299285888672
 21
234.04052734375
 31
0.0
  0
LINE
  8
0
 10
16.535152435302734
 20
248.4673614501953
 30
0.0
 11
16.731624603271484
 21
248.73655700683594
 31
0.0
  0
LINE
  8
0
 10
28.946529388427734
 20
247.4934844970703
 30
0.0
 11
28.653865814208984
 21
247.31903076171875
 31
0.0
  0
LINE
  8
0
 10
29.726299285888672
 20
234.04052734375
 30
0.0
 11
29.740108489990234
 21
234.37350463867188
 31
0.0
  0
LINE
  8
0
 10
29.740108489990234
 20
234.37350463867188
 30
0.0
 11
29.68868637084961
 21
234.70277404785156
 31
0.0
  0
LINE
  8
0
 10
29.68868637084961
 20
234.70277404785156
 30
0.0
 11
29.574031829833984
 21
235.01568603515625
 31
0.0
  0
LINE
  8
0
 10
29.574031829833984
 20
235.01568603515625
 30
0.0
 11
29.39956283569336
 21
235.308349609375
 31
0.0
  0
LINE
  8
0
 10
27.806255340576172
 20
232.5936737060547
 30
0.0
 11
28.139232635498047
 21
232.57986450195312
 31
0.0
  0
LINE
  8
0
 10
29.259441375732422
 20
247.60816955566406
 30
0.0
 11
28.946529388427734
 21
247.4934844970703
 31
0.0
  0
LINE
  8
0
 10
29.065929412841797
 20
232.91943359375
 30
0.0
 11
29.311138153076172
 21
233.14512634277344
 31
0.0
  0
LINE
  8
0
 10
29.507610321044922
 20
233.414306640625
 30
0.0
 11
29.311138153076172
 21
233.14512634277344
 31
0.0
  0
LINE
  8
0
 10
29.64779281616211
 20
233.71665954589844
 30
0.0
 11
29.507610321044922
 21
233.414306640625
 31
0.0
  0
LINE
  8
0
 10
28.78139877319336
 20
232.74594116210938
 30
0.0
 11
29.065929412841797
 21
232.91943359375
 31
0.0
  0
LINE
  8
0
 10
30.705013275146484
 20
244.59706115722656
 30
0.0
 11
30.953380584716797
 21
244.83030700683594
 31
0.0
  0
LINE
  8
0
 10
26.677608489990234
 20
233.2572021484375
 30
0.0
 11
26.91085433959961
 21
233.00881958007812
 31
0.0
  0
LINE
  8
0
 10
26.91085433959961
 20
233.00881958007812
 30
0.0
 11
27.180034637451172
 21
232.81234741210938
 31
0.0
  0
LINE
  8
0
 10
27.482372283935547
 20
232.67218017578125
 30
0.0
 11
27.180034637451172
 21
232.81234741210938
 31
0.0
  0
LINE
  8
0
 10
27.482372283935547
 20
232.67218017578125
 30
0.0
 11
27.806255340576172
 21
232.5936737060547
 31
0.0
  0
LINE
  8
0
 10
30.953380584716797
 20
244.83030700683594
 30
0.0
 11
31.149852752685547
 21
245.0994873046875
 31
0.0
  0
LINE
  8
0
 10
31.149852752685547
 20
245.0994873046875
 30
0.0
 11
31.290035247802734
 21
245.40184020996094
 31
0.0
  0
LINE
  8
0
 10
31.290035247802734
 20
245.40184020996094
 30
0.0
 11
31.368541717529297
 21
245.7257080078125
 31
0.0
  0
LINE
  8
0
 10
16.316463470458984
 20
247.8411407470703
 30
0.0
 11
16.394969940185547
 21
248.16502380371094
 31
0.0
  0
LINE
  8
0
 10
16.394969940185547
 20
248.16502380371094
 30
0.0
 11
16.535152435302734
 21
248.4673614501953
 31
0.0
  0
LINE
  8
0
 10
31.042766571044922
 20
246.9853973388672
 30
0.0
 11
30.817089080810547
 21
247.23060607910156
 31
0.0
  0
LINE
  8
0
 10
16.731624603271484
 20
248.73655700683594
 30
0.0
 11
16.97683334350586
 21
248.9622344970703
 31
0.0
  0
LINE
  8
0
 10
17.261363983154297
 20
249.1357421875
 30
0.0
 11
17.574275970458984
 21
249.25039672851562
 31
0.0
  0
LINE
  8
0
 10
17.574275970458984
 20
249.25039672851562
 30
0.0
 11
17.903545379638672
 21
249.3018035888672
 31
0.0
  0
LINE
  8
0
 10
15.22567367553711
 20
234.6510772705078
 30
0.0
 11
14.999996185302734
 21
234.89627075195312
 31
0.0
  0
LINE
  8
0
 10
18.236507415771484
 20
249.28799438476562
 30
0.0
 11
18.56039047241211
 21
249.20948791503906
 31
0.0
  0
LINE
  8
0
 10
18.56039047241211
 20
249.20948791503906
 30
0.0
 11
18.862728118896484
 21
249.06932067871094
 31
0.0
  0
LINE
  8
0
 10
18.862728118896484
 20
249.06932067871094
 30
0.0
 11
19.131908416748047
 21
248.8728485107422
 31
0.0
  0
LINE
  8
0
 10
17.903545379638672
 20
249.3018035888672
 30
0.0
 11
18.236507415771484
 21
249.28799438476562
 31
0.0
  0
LINE
  8
0
 10
16.643199920654297
 20
246.5733184814453
 30
0.0
 11
16.468730926513672
 21
246.86598205566406
 31
0.0
  0
LINE
  8
0
 10
30.705013275146484
 20
244.59706115722656
 30
0.0
 11
29.39956283569336
 21
235.308349609375
 31
0.0
  0
LINE
  8
0
 10
14.752727508544922
 20
236.47984313964844
 30
0.0
 11
14.89291000366211
 21
236.7821807861328
 31
0.0
  0
LINE
  8
0
 10
14.89291000366211
 20
236.7821807861328
 30
0.0
 11
15.08938217163086
 21
237.05137634277344
 31
0.0
  0
LINE
  8
0
 10
15.08938217163086
 20
237.05137634277344
 30
0.0
 11
15.337764739990234
 21
237.28460693359375
 31
0.0
  0
LINE
  8
0
 10
16.121074676513672
 20
234.2359161376953
 30
0.0
 11
15.79720687866211
 21
234.31442260742188
 31
0.0
  0
LINE
  8
0
 10
15.79720687866211
 20
234.31442260742188
 30
0.0
 11
15.494853973388672
 21
234.45460510253906
 31
0.0
  0
LINE
  8
0
 10
15.494853973388672
 20
234.45460510253906
 30
0.0
 11
15.22567367553711
 21
234.6510772705078
 31
0.0
  0
LINE
  8
0
 10
14.67422103881836
 20
236.1559600830078
 30
0.0
 11
14.752727508544922
 21
236.47984313964844
 31
0.0
  0
LINE
  8
0
 10
14.71181869506836
 20
235.4937286376953
 30
0.0
 11
14.826488494873047
 21
235.18080139160156
 31
0.0
  0
LINE
  8
0
 10
14.660411834716797
 20
235.822998046875
 30
0.0
 11
14.71181869506836
 21
235.4937286376953
 31
0.0
  0
LINE
  8
0
 10
14.660411834716797
 20
235.822998046875
 30
0.0
 11
14.67422103881836
 21
236.1559600830078
 31
0.0
  0
LINE
  8
0
 10
14.999996185302734
 20
234.89627075195312
 30
0.0
 11
14.826488494873047
 21
235.18080139160156
 31
0.0
  0
LINE
  8
0
 10
17.388896942138672
 20
234.56265258789062
 30
0.0
 11
17.096233367919922
 21
234.38818359375
 31
0.0
  0
LINE
  8
0
 10
17.096233367919922
 20
234.38818359375
 30
0.0
 11
16.783321380615234
 21
234.2735137939453
 31
0.0
  0
LINE
  8
0
 10
16.454051971435547
 20
234.22210693359375
 30
0.0
 11
16.783321380615234
 21
234.2735137939453
 31
0.0
  0
LINE
  8
0
 10
16.454051971435547
 20
234.22210693359375
 30
0.0
 11
16.121074676513672
 21
234.2359161376953
 31
0.0
  0
LINE
  8
0
 10
16.468730926513672
 20
246.86598205566406
 30
0.0
 11
16.354076385498047
 21
247.1789093017578
 31
0.0
  0
LINE
  8
0
 10
16.354076385498047
 20
247.1789093017578
 30
0.0
 11
16.302654266357422
 21
247.5081787109375
 31
0.0
  0
LINE
  8
0
 10
16.316463470458984
 20
247.8411407470703
 30
0.0
 11
16.302654266357422
 21
247.5081787109375
 31
0.0
  0
LINE
  8
0
 10
16.643199920654297
 20
246.5733184814453
 30
0.0
 11
15.337764739990234
 21
237.28460693359375
 31
0.0
  0
LINE
  8
0
 10
28.653865814208984
 20
247.31903076171875
 30
0.0
 11
19.365154266357422
 21
248.6244659423828
 31
0.0
  0
LINE
  8
0
 10
26.677608489990234
 20
233.2572021484375
 30
0.0
 11
17.388896942138672
 21
234.56265258789062
 31
0.0
  0
LINE
  8
0
 10
16.97683334350586
 20
248.9622344970703
 30
0.0
 11
17.261363983154297
 21
249.1357421875
 31
0.0
  0
LINE
  8
0
 10
37.320735931396484
 20
241.77235412597656
 30
0.0
 11
37.5539665222168
 21
241.5239715576172
 31
0.0
  0
LINE
  8
0
 10
48.11050033569336
 20
240.54525756835938
 30
0.0
 11
47.777523040771484
 21
240.55906677246094
 31
0.0
  0
LINE
  8
0
 10
46.65731430053711
 20
225.53079223632812
 30
0.0
 11
46.970211029052734
 21
225.64544677734375
 31
0.0
  0
LINE
  8
0
 10
47.777523040771484
 20
240.55906677246094
 30
0.0
 11
47.4482536315918
 21
240.50767517089844
 31
0.0
  0
LINE
  8
0
 10
49.405086517333984
 20
239.60037231445312
 30
0.0
 11
49.2315788269043
 21
239.88490295410156
 31
0.0
  0
LINE
  8
0
 10
49.51975631713867
 20
239.28746032714844
 30
0.0
 11
49.405086517333984
 21
239.60037231445312
 31
0.0
  0
LINE
  8
0
 10
49.571163177490234
 20
238.95819091796875
 30
0.0
 11
49.55735397338867
 21
238.62521362304688
 31
0.0
  0
LINE
  8
0
 10
46.32804489135742
 20
225.4793701171875
 30
0.0
 11
46.65731430053711
 21
225.53079223632812
 31
0.0
  0
LINE
  8
0
 10
49.00590133666992
 20
240.13011169433594
 30
0.0
 11
48.73672103881836
 21
240.32656860351562
 31
0.0
  0
LINE
  8
0
 10
48.73672103881836
 20
240.32656860351562
 30
0.0
 11
48.434383392333984
 21
240.4667510986328
 31
0.0
  0
LINE
  8
0
 10
48.434383392333984
 20
240.4667510986328
 30
0.0
 11
48.11050033569336
 21
240.54525756835938
 31
0.0
  0
LINE
  8
0
 10
49.571163177490234
 20
238.95819091796875
 30
0.0
 11
49.51975631713867
 21
239.28746032714844
 31
0.0
  0
LINE
  8
0
 10
47.836605072021484
 20
226.6161651611328
 30
0.0
 11
47.91511154174805
 21
226.94003295898438
 31
0.0
  0
LINE
  8
0
 10
34.72396469116211
 20
241.3668670654297
 30
0.0
 11
34.92043685913086
 21
241.6360626220703
 31
0.0
  0
LINE
  8
0
 10
47.13534164428711
 20
240.3929901123047
 30
0.0
 11
46.84269332885742
 21
240.21852111816406
 31
0.0
  0
LINE
  8
0
 10
47.91511154174805
 20
226.94003295898438
 30
0.0
 11
47.92892074584961
 21
227.2729949951172
 31
0.0
  0
LINE
  8
0
 10
47.92892074584961
 20
227.2729949951172
 30
0.0
 11
47.87751388549805
 21
227.60226440429688
 31
0.0
  0
LINE
  8
0
 10
47.87751388549805
 20
227.60226440429688
 30
0.0
 11
47.76284408569336
 21
227.91519165039062
 31
0.0
  0
LINE
  8
0
 10
47.76284408569336
 20
227.91519165039062
 30
0.0
 11
47.588375091552734
 21
228.20785522460938
 31
0.0
  0
LINE
  8
0
 10
45.99506759643555
 20
225.49317932128906
 30
0.0
 11
46.32804489135742
 21
225.4793701171875
 31
0.0
  0
LINE
  8
0
 10
47.4482536315918
 20
240.50767517089844
 30
0.0
 11
47.13534164428711
 21
240.3929901123047
 31
0.0
  0
LINE
  8
0
 10
47.25474166870117
 20
225.81893920898438
 30
0.0
 11
47.49995040893555
 21
226.0446319580078
 31
0.0
  0
LINE
  8
0
 10
47.6964225769043
 20
226.31381225585938
 30
0.0
 11
47.49995040893555
 21
226.0446319580078
 31
0.0
  0
LINE
  8
0
 10
47.836605072021484
 20
226.6161651611328
 30
0.0
 11
47.6964225769043
 21
226.31381225585938
 31
0.0
  0
LINE
  8
0
 10
46.970211029052734
 20
225.64544677734375
 30
0.0
 11
47.25474166870117
 21
225.81893920898438
 31
0.0
  0
LINE
  8
0
 10
48.89382553100586
 20
237.49656677246094
 30
0.0
 11
49.14219284057617
 21
237.7298126220703
 31
0.0
  0
LINE
  8
0
 10
44.86642074584961
 20
226.15670776367188
 30
0.0
 11
45.099666595458984
 21
225.9083251953125
 31
0.0
  0
LINE
  8
0
 10
45.099666595458984
 20
225.9083251953125
 30
0.0
 11
45.36884689331055
 21
225.71185302734375
 31
0.0
  0
LINE
  8
0
 10
45.67118453979492
 20
225.57168579101562
 30
0.0
 11
45.36884689331055
 21
225.71185302734375
 31
0.0
  0
LINE
  8
0
 10
45.67118453979492
 20
225.57168579101562
 30
0.0
 11
45.99506759643555
 21
225.49317932128906
 31
0.0
  0
LINE
  8
0
 10
49.14219284057617
 20
237.7298126220703
 30
0.0
 11
49.33866500854492
 21
237.99899291992188
 31
0.0
  0
LINE
  8
0
 10
49.33866500854492
 20
237.99899291992188
 30
0.0
 11
49.47884750366211
 21
238.3013458251953
 31
0.0
  0
LINE
  8
0
 10
49.47884750366211
 20
238.3013458251953
 30
0.0
 11
49.55735397338867
 21
238.62521362304688
 31
0.0
  0
LINE
  8
0
 10
34.50527572631836
 20
240.7406463623047
 30
0.0
 11
34.58378219604492
 21
241.0645294189453
 31
0.0
  0
LINE
  8
0
 10
34.58378219604492
 20
241.0645294189453
 30
0.0
 11
34.72396469116211
 21
241.3668670654297
 31
0.0
  0
LINE
  8
0
 10
49.2315788269043
 20
239.88490295410156
 30
0.0
 11
49.00590133666992
 21
240.13011169433594
 31
0.0
  0
LINE
  8
0
 10
34.92043685913086
 20
241.6360626220703
 30
0.0
 11
35.165645599365234
 21
241.8617401123047
 31
0.0
  0
LINE
  8
0
 10
35.45017623901367
 20
242.03524780273438
 30
0.0
 11
35.76308822631836
 21
242.14990234375
 31
0.0
  0
LINE
  8
0
 10
35.76308822631836
 20
242.14990234375
 30
0.0
 11
36.09235763549805
 21
242.20130920410156
 31
0.0
  0
LINE
  8
0
 10
33.414485931396484
 20
227.5505828857422
 30
0.0
 11
33.18880844116211
 21
227.7957763671875
 31
0.0
  0
LINE
  8
0
 10
36.42533493041992
 20
242.1875
 30
0.0
 11
36.749202728271484
 21
242.10899353027344
 31
0.0
  0
LINE
  8
0
 10
36.749202728271484
 20
242.10899353027344
 30
0.0
 11
37.05155563354492
 21
241.9688262939453
 31
0.0
  0
LINE
  8
0
 10
37.05155563354492
 20
241.9688262939453
 30
0.0
 11
37.320735931396484
 21
241.77235412597656
 31
0.0
  0
LINE
  8
0
 10
36.09235763549805
 20
242.20130920410156
 30
0.0
 11
36.42533493041992
 21
242.1875
 31
0.0
  0
LINE
  8
0
 10
34.83201217651367
 20
239.4728240966797
 30
0.0
 11
34.65754318237305
 21
239.76548767089844
 31
0.0
  0
LINE
  8
0
 10
48.89382553100586
 20
237.49656677246094
 30
0.0
 11
47.588375091552734
 21
228.20785522460938
 31
0.0
  0
LINE
  8
0
 10
32.9415397644043
 20
229.3793487548828
 30
0.0
 11
33.081722259521484
 21
229.6816864013672
 31
0.0
  0
LINE
  8
0
 10
33.081722259521484
 20
229.6816864013672
 30
0.0
 11
33.278194427490234
 21
229.9508819580078
 31
0.0
  0
LINE
  8
0
 10
33.278194427490234
 20
229.9508819580078
 30
0.0
 11
33.52657699584961
 21
230.18411254882812
 31
0.0
  0
LINE
  8
0
 10
34.30990219116211
 20
227.1354217529297
 30
0.0
 11
33.986019134521484
 21
227.21392822265625
 31
0.0
  0
LINE
  8
0
 10
33.986019134521484
 20
227.21392822265625
 30
0.0
 11
33.68366622924805
 21
227.35411071777344
 31
0.0
  0
LINE
  8
0
 10
33.68366622924805
 20
227.35411071777344
 30
0.0
 11
33.414485931396484
 21
227.5505828857422
 31
0.0
  0
LINE
  8
0
 10
32.863033294677734
 20
229.0554656982422
 30
0.0
 11
32.9415397644043
 21
229.3793487548828
 31
0.0
  0
LINE
  8
0
 10
32.9006462097168
 20
228.3932342529297
 30
0.0
 11
33.01530075073242
 21
228.08030700683594
 31
0.0
  0
LINE
  8
0
 10
32.84922409057617
 20
228.72250366210938
 30
0.0
 11
32.9006462097168
 21
228.3932342529297
 31
0.0
  0
LINE
  8
0
 10
32.84922409057617
 20
228.72250366210938
 30
0.0
 11
32.863033294677734
 21
229.0554656982422
 31
0.0
  0
LINE
  8
0
 10
33.18880844116211
 20
227.7957763671875
 30
0.0
 11
33.01530075073242
 21
228.08030700683594
 31
0.0
  0
LINE
  8
0
 10
35.57770919799805
 20
227.462158203125
 30
0.0
 11
35.2850456237793
 21
227.28768920898438
 31
0.0
  0
LINE
  8
0
 10
35.2850456237793
 20
227.28768920898438
 30
0.0
 11
34.97213363647461
 21
227.1730194091797
 31
0.0
  0
LINE
  8
0
 10
34.64286422729492
 20
227.12161254882812
 30
0.0
 11
34.97213363647461
 21
227.1730194091797
 31
0.0
  0
LINE
  8
0
 10
34.64286422729492
 20
227.12161254882812
 30
0.0
 11
34.30990219116211
 21
227.1354217529297
 31
0.0
  0
LINE
  8
0
 10
34.65754318237305
 20
239.76548767089844
 30
0.0
 11
34.54288864135742
 21
240.0784149169922
 31
0.0
  0
LINE
  8
0
 10
34.54288864135742
 20
240.0784149169922
 30
0.0
 11
34.4914665222168
 21
240.40768432617188
 31
0.0
  0
LINE
  8
0
 10
34.50527572631836
 20
240.7406463623047
 30
0.0
 11
34.4914665222168
 21
240.40768432617188
 31
0.0
  0
LINE
  8
0
 10
34.83201217651367
 20
239.4728240966797
 30
0.0
 11
33.52657699584961
 21
230.18411254882812
 31
0.0
  0
LINE
  8
0
 10
46.84269332885742
 20
240.21852111816406
 30
0.0
 11
37.5539665222168
 21
241.5239715576172
 31
0.0
  0
LINE
  8
0
 10
44.86642074584961
 20
226.15670776367188
 30
0.0
 11
35.57770919799805
 21
227.462158203125
 31
0.0
  0
LINE
  8
0
 10
35.165645599365234
 20
241.8617401123047
 30
0.0
 11
35.45017623901367
 21
242.03524780273438
 31
0.0
  0
LINE
  8
0
 10
56.7620964050293
 20
243.5842742919922
 30
0.0
 11
56.99534225463867
 21
243.3358917236328
 31
0.0
  0
LINE
  8
0
 10
67.55186462402344
 20
242.357177734375
 30
0.0
 11
67.21890258789062
 21
242.37098693847656
 31
0.0
  0
LINE
  8
0
 10
66.09867858886719
 20
227.3426971435547
 30
0.0
 11
66.41159057617188
 21
227.4573516845703
 31
0.0
  0
LINE
  8
0
 10
67.21890258789062
 20
242.37098693847656
 30
0.0
 11
66.88963317871094
 21
242.319580078125
 31
0.0
  0
LINE
  8
0
 10
68.8464584350586
 20
241.41229248046875
 30
0.0
 11
68.6729507446289
 21
241.6968231201172
 31
0.0
  0
LINE
  8
0
 10
68.96112060546875
 20
241.099365234375
 30
0.0
 11
68.8464584350586
 21
241.41229248046875
 31
0.0
  0
LINE
  8
0
 10
69.01254272460938
 20
240.7700958251953
 30
0.0
 11
68.99872589111328
 21
240.4371337890625
 31
0.0
  0
LINE
  8
0
 10
65.7694091796875
 20
227.29129028320312
 30
0.0
 11
66.09867858886719
 21
227.3426971435547
 31
0.0
  0
LINE
  8
0
 10
68.44728088378906
 20
241.9420166015625
 30
0.0
 11
68.17809295654297
 21
242.13848876953125
 31
0.0
  0
LINE
  8
0
 10
68.17809295654297
 20
242.13848876953125
 30
0.0
 11
67.87574768066406
 21
242.27867126464844
 31
0.0
  0
LINE
  8
0
 10
67.87574768066406
 20
242.27867126464844
 30
0.0
 11
67.55186462402344
 21
242.357177734375
 31
0.0
  0
LINE
  8
0
 10
69.01254272460938
 20
240.7700958251953
 30
0.0
 11
68.96112060546875
 21
241.099365234375
 31
0.0
  0
LINE
  8
0
 10
67.27798461914062
 20
228.42807006835938
 30
0.0
 11
67.35648345947266
 21
228.751953125
 31
0.0
  0
LINE
  8
0
 10
54.165340423583984
 20
243.1787872314453
 30
0.0
 11
54.361812591552734
 21
243.44796752929688
 31
0.0
  0
LINE
  8
0
 10
66.57672119140625
 20
242.2049102783203
 30
0.0
 11
66.2840576171875
 21
242.0304412841797
 31
0.0
  0
LINE
  8
0
 10
67.35648345947266
 20
228.751953125
 30
0.0
 11
67.37029266357422
 21
229.0849151611328
 31
0.0
  0
LINE
  8
0
 10
67.37029266357422
 20
229.0849151611328
 30
0.0
 11
67.31887817382812
 21
229.4141845703125
 31
0.0
  0
LINE
  8
0
 10
67.31887817382812
 20
229.4141845703125
 30
0.0
 11
67.20421600341797
 21
229.72711181640625
 31
0.0
  0
LINE
  8
0
 10
67.20421600341797
 20
229.72711181640625
 30
0.0
 11
67.02974700927734
 21
230.019775390625
 31
0.0
  0
LINE
  8
0
 10
65.43643188476562
 20
227.3050994873047
 30
0.0
 11
65.7694091796875
 21
227.29129028320312
 31
0.0
  0
LINE
  8
0
 10
66.88963317871094
 20
242.319580078125
 30
0.0
 11
66.57672119140625
 21
242.2049102783203
 31
0.0
  0
LINE
  8
0
 10
66.69611358642578
 20
227.630859375
 30
0.0
 11
66.94132232666016
 21
227.85653686523438
 31
0.0
  0
LINE
  8
0
 10
67.13780212402344
 20
228.125732421875
 30
0.0
 11
66.94132232666016
 21
227.85653686523438
 31
0.0
  0
LINE
  8
0
 10
67.27798461914062
 20
228.42807006835938
 30
0.0
 11
67.13780212402344
 21
228.125732421875
 31
0.0
  0
LINE
  8
0
 10
66.41159057617188
 20
227.4573516845703
 30
0.0
 11
66.69611358642578
 21
227.630859375
 31
0.0
  0
LINE
  8
0
 10
68.33518981933594
 20
239.30848693847656
 30
0.0
 11
68.58357238769531
 21
239.54173278808594
 31
0.0
  0
LINE
  8
0
 10
64.30780029296875
 20
227.9686279296875
 30
0.0
 11
64.54103088378906
 21
227.72024536132812
 31
0.0
  0
LINE
  8
0
 10
64.54103088378906
 20
227.72024536132812
 30
0.0
 11
64.81021881103516
 21
227.52377319335938
 31
0.0
  0
LINE
  8
0
 10
65.11256408691406
 20
227.38360595703125
 30
0.0
 11
64.81021881103516
 21
227.52377319335938
 31
0.0
  0
LINE
  8
0
 10
65.11256408691406
 20
227.38360595703125
 30
0.0
 11
65.43643188476562
 21
227.3050994873047
 31
0.0
  0
LINE
  8
0
 10
68.58357238769531
 20
239.54173278808594
 30
0.0
 11
68.78004455566406
 21
239.8109130859375
 31
0.0
  0
LINE
  8
0
 10
68.78004455566406
 20
239.8109130859375
 30
0.0
 11
68.92022705078125
 21
240.11325073242188
 31
0.0
  0
LINE
  8
0
 10
68.92022705078125
 20
240.11325073242188
 30
0.0
 11
68.99872589111328
 21
240.4371337890625
 31
0.0
  0
LINE
  8
0
 10
53.946651458740234
 20
242.5525665283203
 30
0.0
 11
54.0251579284668
 21
242.87643432617188
 31
0.0
  0
LINE
  8
0
 10
54.0251579284668
 20
242.87643432617188
 30
0.0
 11
54.165340423583984
 21
243.1787872314453
 31
0.0
  0
LINE
  8
0
 10
68.6729507446289
 20
241.6968231201172
 30
0.0
 11
68.44728088378906
 21
241.9420166015625
 31
0.0
  0
LINE
  8
0
 10
54.361812591552734
 20
243.44796752929688
 30
0.0
 11
54.60702133178711
 21
243.6736602783203
 31
0.0
  0
LINE
  8
0
 10
54.89155197143555
 20
243.84715270996094
 30
0.0
 11
55.20444869995117
 21
243.96180725097656
 31
0.0
  0
LINE
  8
0
 10
55.20444869995117
 20
243.96180725097656
 30
0.0
 11
55.53371810913086
 21
244.0132293701172
 31
0.0
  0
LINE
  8
0
 10
52.85586166381836
 20
229.36248779296875
 30
0.0
 11
52.630184173583984
 21
229.60769653320312
 31
0.0
  0
LINE
  8
0
 10
55.866695404052734
 20
243.99942016601562
 30
0.0
 11
56.19057846069336
 21
243.92091369628906
 31
0.0
  0
LINE
  8
0
 10
56.19057846069336
 20
243.92091369628906
 30
0.0
 11
56.492916107177734
 21
243.78074645996094
 31
0.0
  0
LINE
  8
0
 10
56.492916107177734
 20
243.78074645996094
 30
0.0
 11
56.7620964050293
 21
243.5842742919922
 31
0.0
  0
LINE
  8
0
 10
55.53371810913086
 20
244.0132293701172
 30
0.0
 11
55.866695404052734
 21
243.99942016601562
 31
0.0
  0
LINE
  8
0
 10
54.27338790893555
 20
241.2847442626953
 30
0.0
 11
54.09891891479492
 21
241.57740783691406
 31
0.0
  0
LINE
  8
0
 10
68.33518981933594
 20
239.30848693847656
 30
0.0
 11
67.02974700927734
 21
230.019775390625
 31
0.0
  0
LINE
  8
0
 10
52.38291549682617
 20
231.19125366210938
 30
0.0
 11
52.52309799194336
 21
231.4936065673828
 31
0.0
  0
LINE
  8
0
 10
52.52309799194336
 20
231.4936065673828
 30
0.0
 11
52.71957015991211
 21
231.76278686523438
 31
0.0
  0
LINE
  8
0
 10
52.71957015991211
 20
231.76278686523438
 30
0.0
 11
52.96793746948242
 21
231.99603271484375
 31
0.0
  0
LINE
  8
0
 10
53.75126266479492
 20
228.9473419189453
 30
0.0
 11
53.4273796081543
 21
229.02584838867188
 31
0.0
  0
LINE
  8
0
 10
53.4273796081543
 20
229.02584838867188
 30
0.0
 11
53.12504196166992
 21
229.16603088378906
 31
0.0
  0
LINE
  8
0
 10
53.12504196166992
 20
229.16603088378906
 30
0.0
 11
52.85586166381836
 21
229.36248779296875
 31
0.0
  0
LINE
  8
0
 10
52.30440902709961
 20
230.8673858642578
 30
0.0
 11
52.38291549682617
 21
231.19125366210938
 31
0.0
  0
LINE
  8
0
 10
52.34200668334961
 20
230.2051544189453
 30
0.0
 11
52.4566764831543
 21
229.89222717285156
 31
0.0
  0
LINE
  8
0
 10
52.29059982299805
 20
230.53440856933594
 30
0.0
 11
52.34200668334961
 21
230.2051544189453
 31
0.0
  0
LINE
  8
0
 10
52.29059982299805
 20
230.53440856933594
 30
0.0
 11
52.30440902709961
 21
230.8673858642578
 31
0.0
  0
LINE
  8
0
 10
52.630184173583984
 20
229.60769653320312
 30
0.0
 11
52.4566764831543
 21
229.89222717285156
 31
0.0
  0
LINE
  8
0
 10
55.01908493041992
 20
229.27407836914062
 30
0.0
 11
54.72642135620117
 21
229.099609375
 31
0.0
  0
LINE
  8
0
 10
54.72642135620117
 20
229.099609375
 30
0.0
 11
54.413509368896484
 21
228.98492431640625
 31
0.0
  0
LINE
  8
0
 10
54.0842399597168
 20
228.93353271484375
 30
0.0
 11
54.413509368896484
 21
228.98492431640625
 31
0.0
  0
LINE
  8
0
 10
54.0842399597168
 20
228.93353271484375
 30
0.0
 11
53.75126266479492
 21
228.9473419189453
 31
0.0
  0
LINE
  8
0
 10
54.09891891479492
 20
241.57740783691406
 30
0.0
 11
53.9842643737793
 21
241.8903350830078
 31
0.0
  0
LINE
  8
0
 10
53.9842643737793
 20
241.8903350830078
 30
0.0
 11
53.93284225463867
 21
242.21958923339844
 31
0.0
  0
LINE
  8
0
 10
53.946651458740234
 20
242.5525665283203
 30
0.0
 11
53.93284225463867
 21
242.21958923339844
 31
0.0
  0
LINE
  8
0
 10
54.27338790893555
 20
241.2847442626953
 30
0.0
 11
52.96793746948242
 21
231.99603271484375
 31
0.0
  0
LINE
  8
0
 10
66.2840576171875
 20
242.0304412841797
 30
0.0
 11
56.99534225463867
 21
243.3358917236328
 31
0.0
  0
LINE
  8
0
 10
64.30780029296875
 20
227.9686279296875
 30
0.0
 11
55.01908493041992
 21
229.27407836914062
 31
0.0
  0
LINE
  8
0
 10
54.60702133178711
 20
243.6736602783203
 30
0.0
 11
54.89155197143555
 21
243.84715270996094
 31
0.0
  0
LINE
  8
0
 10
76.99999237060547
 20
262.0
 30
0.0
 11
76.89405822753906
 21
264.1564025878906
 31
0.0
  0
LINE
  8
0
 10
76.89405822753906
 20
264.1564025878906
 30
0.0
 11
76.57726287841797
 21
266.2919921875
 31
0.0
  0
LINE
  8
0
 10
76.57726287841797
 20
266.2919921875
 30
0.0
 11
76.05267333984375
 21
268.38629150390625
 31
0.0
  0
LINE
  8
0
 10
76.05267333984375
 20
268.38629150390625
 30
0.0
 11
75.32533264160156
 21
270.4190368652344
 31
0.0
  0
LINE
  8
0
 10
75.32533264160156
 20
270.4190368652344
 30
0.0
 11
74.40225219726562
 21
272.3707275390625
 31
0.0
  0
LINE
  8
0
 10
74.40225219726562
 20
272.3707275390625
 30
0.0
 11
73.29231262207031
 21
274.2225646972656
 31
0.0
  0
LINE
  8
0
 10
73.29231262207031
 20
274.2225646972656
 30
0.0
 11
72.00621032714844
 21
275.9566650390625
 31
0.0
  0
LINE
  8
0
 10
72.00621032714844
 20
275.9566650390625
 30
0.0
 11
70.55632781982422
 21
277.5563659667969
 31
0.0
  0
LINE
  8
0
 10
70.55632781982422
 20
277.5563659667969
 30
0.0
 11
68.95662689208984
 21
279.0062255859375
 31
0.0
  0
LINE
  8
0
 10
68.95662689208984
 20
279.0062255859375
 30
0.0
 11
67.22252655029297
 21
280.2923278808594
 31
0.0
  0
LINE
  8
0
 10
67.22252655029297
 20
280.2923278808594
 30
0.0
 11
65.37071228027344
 21
281.4022521972656
 31
0.0
  0
LINE
  8
0
 10
65.37071228027344
 20
281.4022521972656
 30
0.0
 11
63.41902160644531
 21
282.3253479003906
 31
0.0
  0
LINE
  8
0
 10
63.41902160644531
 20
282.3253479003906
 30
0.0
 11
61.386253356933594
 21
283.05267333984375
 31
0.0
  0
LINE
  8
0
 10
61.386253356933594
 20
283.05267333984375
 30
0.0
 11
59.29198455810547
 21
283.5772705078125
 31
0.0
  0
LINE
  8
0
 10
59.29198455810547
 20
283.5772705078125
 30
0.0
 11
57.1563720703125
 21
283.89404296875
 31
0.0
  0
LINE
  8
0
 10
57.1563720703125
 20
283.89404296875
 30
0.0
 11
55.0
 21
284.0
 31
0.0
  0
LINE
  8
0
 10
55.0
 20
284.0
 30
0.0
 11
52.8436279296875
 21
283.8940734863281
 31
0.0
  0
LINE
  8
0
 10
7.244157791137695
 20
276.3270568847656
 30
0.0
 11
52.8436279296875
 21
283.8940734863281
 31
0.0
  0
LINE
  8
0
 10
48.89383316040039
 20
46.503421783447266
 30
0.0
 11
49.1422004699707
 21
46.27018356323242
 31
0.0
  0
LINE
  8
0
 10
45.99507522583008
 20
58.50681686401367
 30
0.0
 11
46.32805252075195
 21
58.5206184387207
 31
0.0
  0
LINE
  8
0
 10
47.87752151489258
 20
56.39772415161133
 30
0.0
 11
47.76285171508789
 21
56.08480453491211
 31
0.0
  0
LINE
  8
0
 10
47.91511917114258
 20
57.05995559692383
 30
0.0
 11
47.92892837524414
 21
56.726993560791016
 31
0.0
  0
LINE
  8
0
 10
34.72397232055664
 20
42.63312911987305
 30
0.0
 11
34.92044448852539
 21
42.36393356323242
 31
0.0
  0
LINE
  8
0
 10
49.571170806884766
 20
45.041805267333984
 30
0.0
 11
49.5197639465332
 21
44.7125358581543
 31
0.0
  0
LINE
  8
0
 10
48.73672866821289
 20
43.67341995239258
 30
0.0
 11
48.434391021728516
 21
43.53323745727539
 31
0.0
  0
LINE
  8
0
 10
47.69643020629883
 20
57.68617630004883
 30
0.0
 11
47.49995803833008
 21
57.95536422729492
 31
0.0
  0
LINE
  8
0
 10
49.571170806884766
 20
45.041805267333984
 30
0.0
 11
49.5573616027832
 21
45.37477493286133
 31
0.0
  0
LINE
  8
0
 10
48.11050796508789
 20
43.45473098754883
 30
0.0
 11
47.777530670166016
 21
43.440921783447266
 31
0.0
  0
LINE
  8
0
 10
16.97684097290039
 20
35.03775405883789
 30
0.0
 11
17.261371612548828
 21
34.864253997802734
 31
0.0
  0
LINE
  8
0
 10
28.653873443603516
 20
36.680965423583984
 30
0.0
 11
19.365161895751953
 21
35.37552261352539
 31
0.0
  0
LINE
  8
0
 10
16.316471099853516
 20
36.15884780883789
 30
0.0
 11
16.302661895751953
 21
36.491817474365234
 31
0.0
  0
LINE
  8
0
 10
16.468738555908203
 20
37.13400650024414
 30
0.0
 11
16.354084014892578
 21
36.82108688354492
 31
0.0
  0
LINE
  8
0
 10
16.454059600830078
 20
49.77788162231445
 30
0.0
 11
16.783329010009766
 21
49.72648239135742
 31
0.0
  0
LINE
  8
0
 10
47.777530670166016
 20
43.440921783447266
 30
0.0
 11
47.44826126098633
 21
43.4923210144043
 31
0.0
  0
LINE
  8
0
 10
46.970218658447266
 20
58.354549407958984
 30
0.0
 11
47.2547492980957
 21
58.18104934692383
 31
0.0
  0
LINE
  8
0
 10
45.67119216918945
 20
58.42831039428711
 30
0.0
 11
45.99507522583008
 21
58.50681686401367
 31
0.0
  0
LINE
  8
0
 10
45.099674224853516
 20
58.0916633605957
 30
0.0
 11
45.36885452270508
 21
58.288143157958984
 31
0.0
  0
LINE
  8
0
 10
15.000003814697266
 20
49.10371780395508
 30
0.0
 11
14.826496124267578
 21
48.81918716430664
 31
0.0
  0
LINE
  8
0
 10
14.71182632446289
 20
48.50626754760742
 30
0.0
 11
14.826496124267578
 21
48.81918716430664
 31
0.0
  0
LINE
  8
0
 10
15.494861602783203
 20
49.54538345336914
 30
0.0
 11
15.22568130493164
 21
49.34891891479492
 31
0.0
  0
LINE
  8
0
 10
16.121082305908203
 20
49.76408004760742
 30
0.0
 11
15.79721450805664
 21
49.68556594848633
 31
0.0
  0
LINE
  8
0
 10
14.89291763305664
 20
47.21781539916992
 30
0.0
 11
15.08938980102539
 21
46.9486198425293
 31
0.0
  0
LINE
  8
0
 10
30.705020904541016
 20
39.40292739868164
 30
0.0
 11
29.39957046508789
 21
48.691646575927734
 31
0.0
  0
LINE
  8
0
 10
17.903553009033203
 20
34.698184967041016
 30
0.0
 11
18.236515045166016
 21
34.71199417114258
 31
0.0
  0
LINE
  8
0
 10
15.22568130493164
 20
49.34891891479492
 30
0.0
 11
15.000003814697266
 21
49.10371780395508
 31
0.0
  0
LINE
  8
0
 10
16.316471099853516
 20
36.15884780883789
 30
0.0
 11
16.394977569580078
 21
35.8349723815918
 31
0.0
  0
LINE
  8
0
 10
31.149860382080078
 20
38.9005012512207
 30
0.0
 11
31.290042877197266
 21
38.5981559753418
 31
0.0
  0
LINE
  8
0
 10
27.806262969970703
 20
51.40632247924805
 30
0.0
 11
27.482379913330078
 21
51.32780838012695
 31
0.0
  0
LINE
  8
0
 10
26.91086196899414
 20
50.99116897583008
 30
0.0
 11
27.180042266845703
 21
51.18764114379883
 31
0.0
  0
LINE
  8
0
 10
30.705020904541016
 20
39.40292739868164
 30
0.0
 11
30.953388214111328
 21
39.1696891784668
 31
0.0
  0
LINE
  8
0
 10
29.507617950439453
 20
50.5856819152832
 30
0.0
 11
29.64780044555664
 21
50.2833366394043
 31
0.0
  0
LINE
  8
0
 10
16.731632232666016
 20
35.2634391784668
 30
0.0
 11
16.97684097290039
 21
35.03775405883789
 31
0.0
  0
LINE
  8
0
 10
14.660419464111328
 20
48.176998138427734
 30
0.0
 11
14.67422866821289
 21
47.84402847290039
 31
0.0
  0
LINE
  8
0
 10
44.86642837524414
 20
57.84328079223633
 30
0.0
 11
45.099674224853516
 21
58.0916633605957
 31
0.0
  0
LINE
  8
0
 10
28.946537017822266
 20
36.50650405883789
 30
0.0
 11
29.259449005126953
 21
36.39182662963867
 31
0.0
  0
LINE
  8
0
 10
29.740116119384766
 20
49.62649154663086
 30
0.0
 11
29.726306915283203
 21
49.9594612121582
 31
0.0
  0
LINE
  8
0
 10
16.535160064697266
 20
35.53263473510742
 30
0.0
 11
16.731632232666016
 21
35.2634391784668
 31
0.0
  0
LINE
  8
0
 10
31.330951690673828
 20
37.61204147338867
 30
0.0
 11
31.38235855102539
 21
37.94131088256836
 31
0.0
  0
LINE
  8
0
 10
30.24557876586914
 20
36.432743072509766
 30
0.0
 11
30.547916412353516
 21
36.57292556762695
 31
0.0
  0
LINE
  8
0
 10
28.468494415283203
 20
51.368709564208984
 30
0.0
 11
28.139240264892578
 21
51.42012405395508
 31
0.0
  0
LINE
  8
0
 10
31.21628189086914
 20
37.29912185668945
 30
0.0
 11
31.330951690673828
 21
37.61204147338867
 31
0.0
  0
LINE
  8
0
 10
29.574039459228516
 20
48.984310150146484
 30
0.0
 11
29.39957046508789
 21
48.691646575927734
 31
0.0
  0
LINE
  8
0
 10
45.67119216918945
 20
58.42831039428711
 30
0.0
 11
45.36885452270508
 21
58.288143157958984
 31
0.0
  0
LINE
  8
0
 10
17.574283599853516
 20
34.74959945678711
 30
0.0
 11
17.903553009033203
 21
34.698184967041016
 31
0.0
  0
LINE
  8
0
 10
30.817096710205078
 20
36.76939010620117
 30
0.0
 11
31.042774200439453
 21
37.014591217041016
 31
0.0
  0
LINE
  8
0
 10
28.468494415283203
 20
51.368709564208984
 30
0.0
 11
28.78140640258789
 21
51.25405502319336
 31
0.0
  0
LINE
  8
0
 10
19.437673568725586
 20
10.819544792175293
 30
0.0
 11
19.63178825378418
 21
11.090434074401855
 31
0.0
  0
LINE
  8
0
 10
18.911436080932617
 20
10.415751457214355
 30
0.0
 11
18.599531173706055
 21
10.298365592956543
 31
0.0
  0
LINE
  8
0
 10
18.270734786987305
 20
10.244074821472168
 30
0.0
 11
17.937658309936523
 21
10.254984855651855
 31
0.0
  0
LINE
  8
0
 10
17.61310386657715
 20
10.330653190612793
 30
0.0
 11
17.309545516967773
 21
10.468195915222168
 31
0.0
  0
LINE
  8
0
 10
17.038663864135742
 20
10.662318229675293
 30
0.0
 11
16.810842514038086
 21
10.90552806854248
 31
0.0
  0
LINE
  8
0
 10
16.634862899780273
 20
11.18854808807373
 30
0.0
 11
16.511655807495117
 21
11.506205558776855
 31
0.0
  0
LINE
  8
0
 10
25.337682723999023
 20
21.03866958618164
 30
0.0
 11
25.094449996948242
 21
20.810855865478516
 31
0.0
  0
LINE
  8
0
 10
24.811445236206055
 20
20.634868621826172
 30
0.0
 11
24.4937801361084
 21
20.511661529541016
 31
0.0
  0
LINE
  8
0
 10
25.18044090270996
 20
23.437671661376953
 30
0.0
 11
25.408254623413086
 21
23.194438934326172
 31
0.0
  0
LINE
  8
0
 10
25.58424186706543
 20
22.911441802978516
 30
0.0
 11
25.701627731323242
 21
22.599552154541016
 31
0.0
  0
LINE
  8
0
 10
25.74500846862793
 20
21.93765640258789
 30
0.0
 11
25.755918502807617
 21
22.270740509033203
 31
0.0
  0
LINE
  8
0
 10
25.66933250427246
 20
21.613101959228516
 30
0.0
 11
25.531797409057617
 21
21.309551239013672
 31
0.0
  0
LINE
  8
0
 10
23.611661911010742
 20
23.803783416748047
 30
0.0
 11
23.9483699798584
 21
23.855907440185547
 31
0.0
  0
LINE
  8
0
 10
24.606000900268555
 20
23.769329071044922
 30
0.0
 11
24.28145408630371
 21
23.845012664794922
 31
0.0
  0
LINE
  8
0
 10
19.85590934753418
 20
12.051630973815918
 30
0.0
 11
19.844999313354492
 21
11.718531608581543
 31
0.0
  0
LINE
  8
0
 10
19.769323348999023
 20
11.39399242401123
 30
0.0
 11
19.63178825378418
 21
11.090434074401855
 31
0.0
  0
LINE
  8
0
 10
6.330663204193115
 20
18.38688850402832
 30
0.0
 11
6.2549872398376465
 21
18.062334060668945
 31
0.0
  0
LINE
  8
0
 10
18.56039810180664
 20
34.79050064086914
 30
0.0
 11
18.862735748291016
 21
34.930667877197266
 31
0.0
  0
LINE
  8
0
 10
6.2549872398376465
 20
18.062334060668945
 30
0.0
 11
6.244077205657959
 21
17.729249954223633
 31
0.0
  0
LINE
  8
0
 10
6.244077205657959
 20
17.729249954223633
 30
0.0
 11
6.298367977142334
 21
17.40043830871582
 31
0.0
  0
LINE
  8
0
 10
14.752735137939453
 20
47.5201530456543
 30
0.0
 11
14.89291763305664
 21
47.21781539916992
 31
0.0
  0
LINE
  8
0
 10
15.08938980102539
 20
46.9486198425293
 30
0.0
 11
15.337772369384766
 21
46.715389251708984
 31
0.0
  0
LINE
  8
0
 10
18.236515045166016
 20
34.71199417114258
 30
0.0
 11
18.56039810180664
 21
34.79050064086914
 31
0.0
  0
LINE
  8
0
 10
16.643207550048828
 20
37.42667007446289
 30
0.0
 11
16.468738555908203
 21
37.13400650024414
 31
0.0
  0
LINE
  8
0
 10
18.862735748291016
 20
34.930667877197266
 30
0.0
 11
19.131916046142578
 21
35.12714767456055
 31
0.0
  0
LINE
  8
0
 10
31.290042877197266
 20
38.5981559753418
 30
0.0
 11
31.368549346923828
 21
38.2742805480957
 31
0.0
  0
LINE
  8
0
 10
17.261371612548828
 20
34.864253997802734
 30
0.0
 11
17.574283599853516
 21
34.74959945678711
 31
0.0
  0
LINE
  8
0
 10
47.76285171508789
 20
56.08480453491211
 30
0.0
 11
47.588382720947266
 21
55.79214096069336
 31
0.0
  0
LINE
  8
0
 10
47.836612701416016
 20
57.38383102416992
 30
0.0
 11
47.69643020629883
 21
57.68617630004883
 31
0.0
  0
LINE
  8
0
 10
30.953388214111328
 20
39.1696891784668
 30
0.0
 11
31.149860382080078
 21
38.9005012512207
 31
0.0
  0
LINE
  8
0
 10
47.92892837524414
 20
56.726993560791016
 30
0.0
 11
47.87752151489258
 21
56.39772415161133
 31
0.0
  0
LINE
  8
0
 10
27.482379913330078
 20
51.32780838012695
 30
0.0
 11
27.180042266845703
 21
51.18764114379883
 31
0.0
  0
LINE
  8
0
 10
47.13534927368164
 20
43.606998443603516
 30
0.0
 11
46.84270095825195
 21
43.78146743774414
 31
0.0
  0
LINE
  8
0
 10
26.677616119384766
 20
50.7427864074707
 30
0.0
 11
26.91086196899414
 21
50.99116897583008
 31
0.0
  0
LINE
  8
0
 10
47.836612701416016
 20
57.38383102416992
 30
0.0
 11
47.91511917114258
 21
57.05995559692383
 31
0.0
  0
LINE
  8
0
 10
28.78140640258789
 20
51.25405502319336
 30
0.0
 11
29.065937042236328
 21
51.0805549621582
 31
0.0
  0
LINE
  8
0
 10
48.434391021728516
 20
43.53323745727539
 30
0.0
 11
48.11050796508789
 21
43.45473098754883
 31
0.0
  0
LINE
  8
0
 10
29.507617950439453
 20
50.5856819152832
 30
0.0
 11
29.311145782470703
 21
50.8548698425293
 31
0.0
  0
LINE
  8
0
 10
49.00590896606445
 20
43.8698844909668
 30
0.0
 11
48.73672866821289
 21
43.67341995239258
 31
0.0
  0
LINE
  8
0
 10
19.437673568725586
 20
10.819544792175293
 30
0.0
 11
19.194440841674805
 21
10.591731071472168
 31
0.0
  0
LINE
  8
0
 10
18.599531173706055
 20
10.298365592956543
 30
0.0
 11
18.270734786987305
 21
10.244074821472168
 31
0.0
  0
LINE
  8
0
 10
29.065937042236328
 20
51.0805549621582
 30
0.0
 11
29.311145782470703
 21
50.8548698425293
 31
0.0
  0
LINE
  8
0
 10
46.32805252075195
 20
58.5206184387207
 30
0.0
 11
46.65732192993164
 21
58.46920394897461
 31
0.0
  0
LINE
  8
0
 10
17.937658309936523
 20
10.254984855651855
 30
0.0
 11
17.61310386657715
 21
10.330653190612793
 31
0.0
  0
LINE
  8
0
 10
16.394977569580078
 20
35.8349723815918
 30
0.0
 11
16.535160064697266
 21
35.53263473510742
 31
0.0
  0
LINE
  8
0
 10
47.2547492980957
 20
58.18104934692383
 30
0.0
 11
47.49995803833008
 21
57.95536422729492
 31
0.0
  0
LINE
  8
0
 10
17.309545516967773
 20
10.468195915222168
 30
0.0
 11
17.038663864135742
 21
10.662318229675293
 31
0.0
  0
LINE
  8
0
 10
14.660419464111328
 20
48.176998138427734
 30
0.0
 11
14.71182632446289
 21
48.50626754760742
 31
0.0
  0
LINE
  8
0
 10
19.131916046142578
 20
35.12714767456055
 30
0.0
 11
19.365161895751953
 21
35.37552261352539
 31
0.0
  0
LINE
  8
0
 10
37.320743560791016
 20
42.22764205932617
 30
0.0
 11
37.55397415161133
 21
42.476016998291016
 31
0.0
  0
LINE
  8
0
 10
49.5197639465332
 20
44.7125358581543
 30
0.0
 11
49.405094146728516
 21
44.39962387084961
 31
0.0
  0
LINE
  8
0
 10
16.810842514038086
 20
10.90552806854248
 30
0.0
 11
16.634862899780273
 21
11.18854808807373
 31
0.0
  0
LINE
  8
0
 10
49.1422004699707
 20
46.27018356323242
 30
0.0
 11
49.33867263793945
 21
46.00099563598633
 31
0.0
  0
LINE
  8
0
 10
26.677616119384766
 20
50.7427864074707
 30
0.0
 11
17.388904571533203
 21
49.43734359741211
 31
0.0
  0
LINE
  8
0
 10
29.58871841430664
 20
36.34042739868164
 30
0.0
 11
29.921695709228516
 21
36.3542366027832
 31
0.0
  0
LINE
  8
0
 10
25.531797409057617
 20
21.309551239013672
 30
0.0
 11
25.337682723999023
 21
21.03866958618164
 31
0.0
  0
LINE
  8
0
 10
28.139240264892578
 20
51.42012405395508
 30
0.0
 11
27.806262969970703
 21
51.40632247924805
 31
0.0
  0
LINE
  8
0
 10
28.653873443603516
 20
36.680965423583984
 30
0.0
 11
28.946537017822266
 21
36.50650405883789
 31
0.0
  0
LINE
  8
0
 10
16.643207550048828
 20
37.42667007446289
 30
0.0
 11
15.337772369384766
 21
46.715389251708984
 31
0.0
  0
LINE
  8
0
 10
25.094449996948242
 20
20.810855865478516
 30
0.0
 11
24.811445236206055
 21
20.634868621826172
 31
0.0
  0
LINE
  8
0
 10
29.726306915283203
 20
49.9594612121582
 30
0.0
 11
29.64780044555664
 21
50.2833366394043
 31
0.0
  0
LINE
  8
0
 10
16.354084014892578
 20
36.82108688354492
 30
0.0
 11
16.302661895751953
 21
36.491817474365234
 31
0.0
  0
LINE
  8
0
 10
24.9095516204834
 20
23.631793975830078
 30
0.0
 11
25.18044090270996
 21
23.437671661376953
 31
0.0
  0
LINE
  8
0
 10
29.921695709228516
 20
36.3542366027832
 30
0.0
 11
30.24557876586914
 21
36.432743072509766
 31
0.0
  0
LINE
  8
0
 10
16.454059600830078
 20
49.77788162231445
 30
0.0
 11
16.121082305908203
 21
49.76408004760742
 31
0.0
  0
LINE
  8
0
 10
25.408254623413086
 20
23.194438934326172
 30
0.0
 11
25.58424186706543
 21
22.911441802978516
 31
0.0
  0
LINE
  8
0
 10
30.547916412353516
 20
36.57292556762695
 30
0.0
 11
30.817096710205078
 21
36.76939010620117
 31
0.0
  0
LINE
  8
0
 10
17.096240997314453
 20
49.611812591552734
 30
0.0
 11
16.783329010009766
 21
49.72648239135742
 31
0.0
  0
LINE
  8
0
 10
25.701627731323242
 20
22.599552154541016
 30
0.0
 11
25.755918502807617
 21
22.270740509033203
 31
0.0
  0
LINE
  8
0
 10
31.38235855102539
 20
37.94131088256836
 30
0.0
 11
31.368549346923828
 21
38.2742805480957
 31
0.0
  0
LINE
  8
0
 10
17.388904571533203
 20
49.43734359741211
 30
0.0
 11
17.096240997314453
 21
49.611812591552734
 31
0.0
  0
LINE
  8
0
 10
25.66933250427246
 20
21.613101959228516
 30
0.0
 11
25.74500846862793
 21
21.93765640258789
 31
0.0
  0
LINE
  8
0
 10
31.042774200439453
 20
37.014591217041016
 30
0.0
 11
31.21628189086914
 21
37.29912185668945
 31
0.0
  0
LINE
  8
0
 10
46.65732192993164
 20
58.46920394897461
 30
0.0
 11
46.970218658447266
 21
58.354549407958984
 31
0.0
  0
LINE
  8
0
 10
19.80377769470215
 20
12.388331413269043
 30
0.0
 11
19.85590934753418
 21
12.051630973815918
 31
0.0
  0
LINE
  8
0
 10
29.259449005126953
 20
36.39182662963867
 30
0.0
 11
29.58871841430664
 21
36.34042739868164
 31
0.0
  0
LINE
  8
0
 10
23.9483699798584
 20
23.855907440185547
 30
0.0
 11
24.28145408630371
 21
23.845012664794922
 31
0.0
  0
LINE
  8
0
 10
29.574039459228516
 20
48.984310150146484
 30
0.0
 11
29.68869400024414
 21
49.29722213745117
 31
0.0
  0
LINE
  8
0
 10
34.50528335571289
 20
43.259342193603516
 30
0.0
 11
34.58378982543945
 21
42.93546676635742
 31
0.0
  0
LINE
  8
0
 10
24.606000900268555
 20
23.769329071044922
 30
0.0
 11
24.9095516204834
 21
23.631793975830078
 31
0.0
  0
LINE
  8
0
 10
19.844999313354492
 20
11.718531608581543
 30
0.0
 11
19.769323348999023
 21
11.39399242401123
 31
0.0
  0
LINE
  8
0
 10
14.67422866821289
 20
47.84402847290039
 30
0.0
 11
14.752735137939453
 21
47.5201530456543
 31
0.0
  0
LINE
  8
0
 10
6.468198299407959
 20
18.690439224243164
 30
0.0
 11
6.330663204193115
 21
18.38688850402832
 31
0.0
  0
LINE
  8
0
 10
15.79721450805664
 20
49.68556594848633
 30
0.0
 11
15.494861602783203
 21
49.54538345336914
 31
0.0
  0
LINE
  8
0
 10
80.99999237060547
 20
251.5
 30
0.0
 11
79.4692611694336
 21
251.80447387695312
 31
0.0
  0
LINE
  8
0
 10
12.19621753692627
 20
27.611658096313477
 30
0.0
 11
12.144085884094238
 21
27.948366165161133
 31
0.0
  0
LINE
  8
0
 10
14.690449714660645
 20
29.53179359436035
 30
0.0
 11
14.38689136505127
 21
29.669328689575195
 31
0.0
  0
LINE
  8
0
 10
13.0885591506958
 20
29.584238052368164
 30
0.0
 11
12.805554389953613
 21
29.40825080871582
 31
0.0
  0
LINE
  8
0
 10
79.4692611694336
 20
251.80447387695312
 30
0.0
 11
78.17156982421875
 21
252.67156982421875
 31
0.0
  0
LINE
  8
0
 10
13.729260444641113
 20
29.75591468811035
 30
0.0
 11
13.400464057922363
 21
29.701631546020508
 31
0.0
  0
LINE
  8
0
 10
13.0885591506958
 20
29.584238052368164
 30
0.0
 11
13.400464057922363
 21
29.701631546020508
 31
0.0
  0
LINE
  8
0
 10
78.17156982421875
 20
252.67156982421875
 30
0.0
 11
77.30447387695312
 21
253.96926879882812
 31
0.0
  0
LINE
  8
0
 10
14.38689136505127
 20
29.669328689575195
 30
0.0
 11
14.062336921691895
 21
29.745004653930664
 31
0.0
  0
LINE
  8
0
 10
13.729260444641113
 20
29.75591468811035
 30
0.0
 11
14.062336921691895
 21
29.745004653930664
 31
0.0
  0
LINE
  8
0
 10
76.99999237060547
 20
255.5
 30
0.0
 11
77.30447387695312
 21
253.96926879882812
 31
0.0
  0
LINE
  8
0
 10
12.230671882629395
 20
28.60600471496582
 30
0.0
 11
12.154995918273926
 21
28.281450271606445
 31
0.0
  0
LINE
  8
0
 10
12.154995918273926
 20
28.281450271606445
 30
0.0
 11
12.144085884094238
 21
27.948366165161133
 31
0.0
  0
LINE
  8
0
 10
77.00000762939453
 20
28.499998092651367
 30
0.0
 11
77.30448913574219
 21
30.030729293823242
 31
0.0
  0
LINE
  8
0
 10
6.59174108505249
 20
16.805551528930664
 30
0.0
 11
6.819554805755615
 21
16.562318801879883
 31
0.0
  0
LINE
  8
0
 10
6.819554805755615
 20
16.562318801879883
 30
0.0
 11
7.090444564819336
 21
16.368196487426758
 31
0.0
  0
LINE
  8
0
 10
12.368206977844238
 20
28.909555435180664
 30
0.0
 11
12.230671882629395
 21
28.60600471496582
 31
0.0
  0
LINE
  8
0
 10
77.30448913574219
 20
30.030729293823242
 30
0.0
 11
78.17157745361328
 21
31.328428268432617
 31
0.0
  0
LINE
  8
0
 10
7.718542098999023
 20
16.154977798461914
 30
0.0
 11
8.051626205444336
 21
16.14408302307129
 31
0.0
  0
LINE
  8
0
 10
8.051626205444336
 20
16.14408302307129
 30
0.0
 11
8.388334274291992
 21
16.19620704650879
 31
0.0
  0
LINE
  8
0
 10
78.17157745361328
 20
31.328428268432617
 30
0.0
 11
79.46926879882812
 21
32.19551467895508
 31
0.0
  0
LINE
  8
0
 10
7.090444564819336
 20
16.368196487426758
 30
0.0
 11
7.39399528503418
 21
16.230661392211914
 31
0.0
  0
LINE
  8
0
 10
7.39399528503418
 20
16.230661392211914
 30
0.0
 11
7.718542098999023
 21
16.154977798461914
 31
0.0
  0
LINE
  8
0
 10
81.00000762939453
 20
32.499996185302734
 30
0.0
 11
79.46926879882812
 21
32.19551467895508
 31
0.0
  0
LINE
  8
0
 10
6.298367977142334
 20
17.40043830871582
 30
0.0
 11
6.4157538414001465
 21
17.08854866027832
 31
0.0
  0
LINE
  8
0
 10
6.4157538414001465
 20
17.08854866027832
 30
0.0
 11
6.59174108505249
 21
16.805551528930664
 31
0.0
  0
LINE
  8
0
 10
117.99999237060547
 20
251.5
 30
0.0
 11
80.99999237060547
 21
251.5
 31
0.0
  0
LINE
  8
0
 10
76.99999237060547
 20
262.0
 30
0.0
 11
76.99999237060547
 21
255.5
 31
0.0
  0
LINE
  8
0
 10
7.244169235229492
 20
7.672937870025635
 30
0.0
 11
5.555830001831055
 21
8.185083389282227
 31
0.0
  0
LINE
  8
0
 10
118.00000762939453
 20
32.5
 30
0.0
 11
81.00000762939453
 21
32.499996185302734
 31
0.0
  0
LINE
  8
0
 10
29.68869400024414
 20
49.29722213745117
 30
0.0
 11
29.740116119384766
 21
49.62649154663086
 31
0.0
  0
LINE
  8
0
 10
47.44826126098633
 20
43.4923210144043
 30
0.0
 11
47.13534927368164
 21
43.606998443603516
 31
0.0
  0
LINE
  8
0
 10
49.405094146728516
 20
44.39962387084961
 30
0.0
 11
49.23158645629883
 21
44.11509323120117
 31
0.0
  0
LINE
  8
0
 10
19.194440841674805
 20
10.591731071472168
 30
0.0
 11
18.911436080932617
 21
10.415751457214355
 31
0.0
  0
LINE
  8
0
 10
34.92044448852539
 20
42.36393356323242
 30
0.0
 11
35.165653228759766
 21
42.13825607299805
 31
0.0
  0
LINE
  8
0
 10
35.4501838684082
 20
41.96474838256836
 30
0.0
 11
35.76309585571289
 21
41.850093841552734
 31
0.0
  0
LINE
  8
0
 10
35.76309585571289
 20
41.850093841552734
 30
0.0
 11
36.09236526489258
 21
41.79867935180664
 31
0.0
  0
LINE
  8
0
 10
33.414493560791016
 20
56.44941329956055
 30
0.0
 11
33.18881607055664
 21
56.2042121887207
 31
0.0
  0
LINE
  8
0
 10
36.42534255981445
 20
41.8124885559082
 30
0.0
 11
36.749210357666016
 21
41.890995025634766
 31
0.0
  0
LINE
  8
0
 10
36.749210357666016
 20
41.890995025634766
 30
0.0
 11
37.05156326293945
 21
42.03116226196289
 31
0.0
  0
LINE
  8
0
 10
37.05156326293945
 20
42.03116226196289
 30
0.0
 11
37.320743560791016
 21
42.22764205932617
 31
0.0
  0
LINE
  8
0
 10
36.09236526489258
 20
41.79867935180664
 30
0.0
 11
36.42534255981445
 21
41.8124885559082
 31
0.0
  0
LINE
  8
0
 10
34.8320198059082
 20
44.527164459228516
 30
0.0
 11
34.65755081176758
 21
44.234500885009766
 31
0.0
  0
LINE
  8
0
 10
48.89383316040039
 20
46.503421783447266
 30
0.0
 11
47.588382720947266
 21
55.79214096069336
 31
0.0
  0
LINE
  8
0
 10
32.94154739379883
 20
54.62064743041992
 30
0.0
 11
33.081729888916016
 21
54.31830978393555
 31
0.0
  0
LINE
  8
0
 10
33.081729888916016
 20
54.31830978393555
 30
0.0
 11
33.278202056884766
 21
54.04911422729492
 31
0.0
  0
LINE
  8
0
 10
33.278202056884766
 20
54.04911422729492
 30
0.0
 11
33.52658462524414
 21
53.81588363647461
 31
0.0
  0
LINE
  8
0
 10
34.30990982055664
 20
56.86457443237305
 30
0.0
 11
33.986026763916016
 21
56.78606033325195
 31
0.0
  0
LINE
  8
0
 10
33.986026763916016
 20
56.78606033325195
 30
0.0
 11
33.68367385864258
 21
56.645877838134766
 31
0.0
  0
LINE
  8
0
 10
33.68367385864258
 20
56.645877838134766
 30
0.0
 11
33.414493560791016
 21
56.44941329956055
 31
0.0
  0
LINE
  8
0
 10
32.863040924072266
 20
54.944522857666016
 30
0.0
 11
32.94154739379883
 21
54.62064743041992
 31
0.0
  0
LINE
  8
0
 10
32.90065383911133
 20
55.60676193237305
 30
0.0
 11
33.01530838012695
 21
55.919681549072266
 31
0.0
  0
LINE
  8
0
 10
32.8492317199707
 20
55.27749252319336
 30
0.0
 11
32.90065383911133
 21
55.60676193237305
 31
0.0
  0
LINE
  8
0
 10
32.8492317199707
 20
55.27749252319336
 30
0.0
 11
32.863040924072266
 21
54.944522857666016
 31
0.0
  0
LINE
  8
0
 10
33.18881607055664
 20
56.2042121887207
 30
0.0
 11
33.01530838012695
 21
55.919681549072266
 31
0.0
  0
LINE
  8
0
 10
35.57771682739258
 20
56.537837982177734
 30
0.0
 11
35.28505325317383
 21
56.71230697631836
 31
0.0
  0
LINE
  8
0
 10
35.28505325317383
 20
56.71230697631836
 30
0.0
 11
34.97214126586914
 21
56.82697677612305
 31
0.0
  0
LINE
  8
0
 10
34.64287185668945
 20
56.87837600708008
 30
0.0
 11
34.97214126586914
 21
56.82697677612305
 31
0.0
  0
LINE
  8
0
 10
34.64287185668945
 20
56.87837600708008
 30
0.0
 11
34.30990982055664
 21
56.86457443237305
 31
0.0
  0
LINE
  8
0
 10
34.65755081176758
 20
44.234500885009766
 30
0.0
 11
34.54289627075195
 21
43.92158126831055
 31
0.0
  0
LINE
  8
0
 10
34.54289627075195
 20
43.92158126831055
 30
0.0
 11
34.49147415161133
 21
43.59231185913086
 31
0.0
  0
LINE
  8
0
 10
34.50528335571289
 20
43.259342193603516
 30
0.0
 11
34.49147415161133
 21
43.59231185913086
 31
0.0
  0
LINE
  8
0
 10
34.8320198059082
 20
44.527164459228516
 30
0.0
 11
33.52658462524414
 21
53.81588363647461
 31
0.0
  0
LINE
  8
0
 10
46.84270095825195
 20
43.78146743774414
 30
0.0
 11
37.55397415161133
 21
42.476016998291016
 31
0.0
  0
LINE
  8
0
 10
44.86642837524414
 20
57.84328079223633
 30
0.0
 11
35.57771682739258
 21
56.537837982177734
 31
0.0
  0
LINE
  8
0
 10
35.165653228759766
 20
42.13825607299805
 30
0.0
 11
35.4501838684082
 21
41.96474838256836
 31
0.0
  0
LINE
  8
0
 10
56.76210403442383
 20
40.41572189331055
 30
0.0
 11
56.9953498840332
 21
40.66410446166992
 31
0.0
  0
LINE
  8
0
 10
67.55187225341797
 20
41.6428108215332
 30
0.0
 11
67.21891021728516
 21
41.62900924682617
 31
0.0
  0
LINE
  8
0
 10
66.09868621826172
 20
56.657291412353516
 30
0.0
 11
66.4115982055664
 21
56.54263687133789
 31
0.0
  0
LINE
  8
0
 10
67.21891021728516
 20
41.62900924682617
 30
0.0
 11
66.88964080810547
 21
41.6804084777832
 31
0.0
  0
LINE
  8
0
 10
68.84646606445312
 20
42.587703704833984
 30
0.0
 11
68.67295837402344
 21
42.30317306518555
 31
0.0
  0
LINE
  8
0
 10
68.96112823486328
 20
42.9006233215332
 30
0.0
 11
68.84646606445312
 21
42.587703704833984
 31
0.0
  0
LINE
  8
0
 10
69.0125503540039
 20
43.22989273071289
 30
0.0
 11
68.99873352050781
 21
43.5628547668457
 31
0.0
  0
LINE
  8
0
 10
65.76941680908203
 20
56.70870590209961
 30
0.0
 11
66.09868621826172
 21
56.657291412353516
 31
0.0
  0
LINE
  8
0
 10
68.4472885131836
 20
42.0579719543457
 30
0.0
 11
68.1781005859375
 21
41.86149978637695
 31
0.0
  0
LINE
  8
0
 10
68.1781005859375
 20
41.86149978637695
 30
0.0
 11
67.8757553100586
 21
41.721317291259766
 31
0.0
  0
LINE
  8
0
 10
67.8757553100586
 20
41.721317291259766
 30
0.0
 11
67.55187225341797
 21
41.6428108215332
 31
0.0
  0
LINE
  8
0
 10
69.0125503540039
 20
43.22989273071289
 30
0.0
 11
68.96112823486328
 21
42.9006233215332
 31
0.0
  0
LINE
  8
0
 10
67.27799224853516
 20
55.57191848754883
 30
0.0
 11
67.35649108886719
 21
55.2480354309082
 31
0.0
  0
LINE
  8
0
 10
54.165348052978516
 20
40.82120895385742
 30
0.0
 11
54.361820220947266
 21
40.55202102661133
 31
0.0
  0
LINE
  8
0
 10
66.57672882080078
 20
41.79507827758789
 30
0.0
 11
66.28406524658203
 21
41.969547271728516
 31
0.0
  0
LINE
  8
0
 10
67.35649108886719
 20
55.2480354309082
 30
0.0
 11
67.37030029296875
 21
54.91507339477539
 31
0.0
  0
LINE
  8
0
 10
67.37030029296875
 20
54.91507339477539
 30
0.0
 11
67.31888580322266
 21
54.5858039855957
 31
0.0
  0
LINE
  8
0
 10
67.31888580322266
 20
54.5858039855957
 30
0.0
 11
67.2042236328125
 21
54.272884368896484
 31
0.0
  0
LINE
  8
0
 10
67.2042236328125
 20
54.272884368896484
 30
0.0
 11
67.02975463867188
 21
53.980220794677734
 31
0.0
  0
LINE
  8
0
 10
65.43643951416016
 20
56.69489669799805
 30
0.0
 11
65.76941680908203
 21
56.70870590209961
 31
0.0
  0
LINE
  8
0
 10
66.88964080810547
 20
41.6804084777832
 30
0.0
 11
66.57672882080078
 21
41.79507827758789
 31
0.0
  0
LINE
  8
0
 10
66.69612121582031
 20
56.3691291809082
 30
0.0
 11
66.94132995605469
 21
56.14345169067383
 31
0.0
  0
LINE
  8
0
 10
67.13780975341797
 20
55.8742561340332
 30
0.0
 11
66.94132995605469
 21
56.14345169067383
 31
0.0
  0
LINE
  8
0
 10
67.27799224853516
 20
55.57191848754883
 30
0.0
 11
67.13780975341797
 21
55.8742561340332
 31
0.0
  0
LINE
  8
0
 10
66.4115982055664
 20
56.54263687133789
 30
0.0
 11
66.69612121582031
 21
56.3691291809082
 31
0.0
  0
LINE
  8
0
 10
68.33519744873047
 20
44.69150161743164
 30
0.0
 11
68.58358001708984
 21
44.4582633972168
 31
0.0
  0
LINE
  8
0
 10
64.30780792236328
 20
56.0313606262207
 30
0.0
 11
64.5410385131836
 21
56.27974319458008
 31
0.0
  0
LINE
  8
0
 10
64.5410385131836
 20
56.27974319458008
 30
0.0
 11
64.81022644042969
 21
56.47622299194336
 31
0.0
  0
LINE
  8
0
 10
65.1125717163086
 20
56.616390228271484
 30
0.0
 11
64.81022644042969
 21
56.47622299194336
 31
0.0
  0
LINE
  8
0
 10
65.1125717163086
 20
56.616390228271484
 30
0.0
 11
65.43643951416016
 21
56.69489669799805
 31
0.0
  0
LINE
  8
0
 10
68.58358001708984
 20
44.4582633972168
 30
0.0
 11
68.7800521850586
 21
44.1890754699707
 31
0.0
  0
LINE
  8
0
 10
68.7800521850586
 20
44.1890754699707
 30
0.0
 11
68.92023468017578
 21
43.88673782348633
 31
0.0
  0
LINE
  8
0
 10
68.92023468017578
 20
43.88673782348633
 30
0.0
 11
68.99873352050781
 21
43.5628547668457
 31
0.0
  0
LINE
  8
0
 10
53.946659088134766
 20
41.44742965698242
 30
0.0
 11
54.02516555786133
 21
41.12355422973633
 31
0.0
  0
LINE
  8
0
 10
54.02516555786133
 20
41.12355422973633
 30
0.0
 11
54.165348052978516
 21
40.82120895385742
 31
0.0
  0
LINE
  8
0
 10
68.67295837402344
 20
42.30317306518555
 30
0.0
 11
68.4472885131836
 21
42.0579719543457
 31
0.0
  0
LINE
  8
0
 10
54.361820220947266
 20
40.55202102661133
 30
0.0
 11
54.60702896118164
 21
40.32633590698242
 31
0.0
  0
LINE
  8
0
 10
54.89155960083008
 20
40.152835845947266
 30
0.0
 11
55.2044563293457
 21
40.03818130493164
 31
0.0
  0
LINE
  8
0
 10
55.2044563293457
 20
40.03818130493164
 30
0.0
 11
55.53372573852539
 21
39.986759185791016
 31
0.0
  0
LINE
  8
0
 10
52.85586929321289
 20
54.63750076293945
 30
0.0
 11
52.630191802978516
 21
54.39229202270508
 31
0.0
  0
LINE
  8
0
 10
55.866703033447266
 20
40.00056838989258
 30
0.0
 11
56.19058609008789
 21
40.07907485961914
 31
0.0
  0
LINE
  8
0
 10
56.19058609008789
 20
40.07907485961914
 30
0.0
 11
56.492923736572266
 21
40.219242095947266
 31
0.0
  0
LINE
  8
0
 10
56.492923736572266
 20
40.219242095947266
 30
0.0
 11
56.76210403442383
 21
40.41572189331055
 31
0.0
  0
LINE
  8
0
 10
55.53372573852539
 20
39.986759185791016
 30
0.0
 11
55.866703033447266
 21
40.00056838989258
 31
0.0
  0
LINE
  8
0
 10
54.27339553833008
 20
42.71524429321289
 30
0.0
 11
54.09892654418945
 21
42.42258071899414
 31
0.0
  0
LINE
  8
0
 10
68.33519744873047
 20
44.69150161743164
 30
0.0
 11
67.02975463867188
 21
53.980220794677734
 31
0.0
  0
LINE
  8
0
 10
52.3829231262207
 20
52.80873489379883
 30
0.0
 11
52.52310562133789
 21
52.50638961791992
 31
0.0
  0
LINE
  8
0
 10
52.52310562133789
 20
52.50638961791992
 30
0.0
 11
52.71957778930664
 21
52.23720169067383
 31
0.0
  0
LINE
  8
0
 10
52.71957778930664
 20
52.23720169067383
 30
0.0
 11
52.96794509887695
 21
52.003963470458984
 31
0.0
  0
LINE
  8
0
 10
53.75127029418945
 20
55.05265426635742
 30
0.0
 11
53.42738723754883
 21
54.97414779663086
 31
0.0
  0
LINE
  8
0
 10
53.42738723754883
 20
54.97414779663086
 30
0.0
 11
53.12504959106445
 21
54.83396530151367
 31
0.0
  0
LINE
  8
0
 10
53.12504959106445
 20
54.83396530151367
 30
0.0
 11
52.85586929321289
 21
54.63750076293945
 31
0.0
  0
LINE
  8
0
 10
52.30441665649414
 20
53.13261032104492
 30
0.0
 11
52.3829231262207
 21
52.80873489379883
 31
0.0
  0
LINE
  8
0
 10
52.34201431274414
 20
53.79484176635742
 30
0.0
 11
52.45668411254883
 21
54.10776138305664
 31
0.0
  0
LINE
  8
0
 10
52.29060745239258
 20
53.465579986572266
 30
0.0
 11
52.34201431274414
 21
53.79484176635742
 31
0.0
  0
LINE
  8
0
 10
52.29060745239258
 20
53.465579986572266
 30
0.0
 11
52.30441665649414
 21
53.13261032104492
 31
0.0
  0
LINE
  8
0
 10
52.630191802978516
 20
54.39229202270508
 30
0.0
 11
52.45668411254883
 21
54.10776138305664
 31
0.0
  0
LINE
  8
0
 10
55.01909255981445
 20
54.72591781616211
 30
0.0
 11
54.7264289855957
 21
54.900386810302734
 31
0.0
  0
LINE
  8
0
 10
54.7264289855957
 20
54.900386810302734
 30
0.0
 11
54.413516998291016
 21
55.01506423950195
 31
0.0
  0
LINE
  8
0
 10
54.08424758911133
 20
55.066463470458984
 30
0.0
 11
54.413516998291016
 21
55.01506423950195
 31
0.0
  0
LINE
  8
0
 10
54.08424758911133
 20
55.066463470458984
 30
0.0
 11
53.75127029418945
 21
55.05265426635742
 31
0.0
  0
LINE
  8
0
 10
54.09892654418945
 20
42.42258071899414
 30
0.0
 11
53.98427200317383
 21
42.10966110229492
 31
0.0
  0
LINE
  8
0
 10
53.98427200317383
 20
42.10966110229492
 30
0.0
 11
53.9328498840332
 21
41.780399322509766
 31
0.0
  0
LINE
  8
0
 10
53.946659088134766
 20
41.44742965698242
 30
0.0
 11
53.9328498840332
 21
41.780399322509766
 31
0.0
  0
LINE
  8
0
 10
54.27339553833008
 20
42.71524429321289
 30
0.0
 11
52.96794509887695
 21
52.003963470458984
 31
0.0
  0
LINE
  8
0
 10
66.28406524658203
 20
41.969547271728516
 30
0.0
 11
56.9953498840332
 21
40.66410446166992
 31
0.0
  0
LINE
  8
0
 10
64.30780792236328
 20
56.0313606262207
 30
0.0
 11
55.01909255981445
 21
54.72591781616211
 31
0.0
  0
LINE
  8
0
 10
54.60702896118164
 20
40.32633590698242
 30
0.0
 11
54.89155960083008
 21
40.152835845947266
 31
0.0
  0
LINE
  8
0
 10
77.00000762939453
 20
21.999982833862305
 30
0.0
 11
76.8940658569336
 21
19.843603134155273
 31
0.0
  0
LINE
  8
0
 10
76.8940658569336
 20
19.843603134155273
 30
0.0
 11
76.57727813720703
 21
17.707990646362305
 31
0.0
  0
LINE
  8
0
 10
76.57727813720703
 20
17.707990646362305
 30
0.0
 11
76.05268859863281
 21
15.613714218139648
 31
0.0
  0
LINE
  8
0
 10
76.05268859863281
 20
15.613714218139648
 30
0.0
 11
75.32534790039062
 21
13.58094596862793
 31
0.0
  0
LINE
  8
0
 10
75.32534790039062
 20
13.58094596862793
 30
0.0
 11
74.40226745605469
 21
11.629255294799805
 31
0.0
  0
LINE
  8
0
 10
74.40226745605469
 20
11.629255294799805
 30
0.0
 11
73.29232788085938
 21
9.777433395385742
 31
0.0
  0
LINE
  8
0
 10
73.29232788085938
 20
9.777433395385742
 30
0.0
 11
72.00621795654297
 21
8.04333209991455
 31
0.0
  0
LINE
  8
0
 10
72.00621795654297
 20
8.04333209991455
 30
0.0
 11
70.55633544921875
 21
6.443631649017334
 31
0.0
  0
LINE
  8
0
 10
70.55633544921875
 20
6.443631649017334
 30
0.0
 11
68.9566421508789
 21
4.9937567710876465
 31
0.0
  0
LINE
  8
0
 10
68.9566421508789
 20
4.9937567710876465
 30
0.0
 11
67.22254180908203
 21
3.7076542377471924
 31
0.0
  0
LINE
  8
0
 10
67.22254180908203
 20
3.7076542377471924
 30
0.0
 11
65.3707275390625
 21
2.5977299213409424
 31
0.0
  0
LINE
  8
0
 10
65.3707275390625
 20
2.5977299213409424
 30
0.0
 11
63.419036865234375
 21
1.6746493577957153
 31
0.0
  0
LINE
  8
0
 10
63.419036865234375
 20
1.6746493577957153
 30
0.0
 11
61.386268615722656
 21
0.9473085403442383
 31
0.0
  0
LINE
  8
0
 10
61.386268615722656
 20
0.9473085403442383
 30
0.0
 11
59.29199981689453
 21
0.4227265417575836
 31
0.0
  0
LINE
  8
0
 10
59.29199981689453
 20
0.4227265417575836
 30
0.0
 11
57.15638732910156
 21
0.10593871772289276
 31
0.0
  0
LINE
  8
0
 10
57.15638732910156
 20
0.10593871772289276
 30
0.0
 11
55.00001525878906
 21
-3.147219558741199e-06
 31
0.0
  0
LINE
  8
0
 10
55.00001525878906
 20
-3.147219558741199e-06
 30
0.0
 11
52.84364318847656
 21
0.10592327266931534
 31
0.0
  0
LINE
  8
0
 10
7.244169235229492
 20
7.672937870025635
 30
0.0
 11
52.84364318847656
 21
0.10592327266931534
 31
0.0
  0
LINE
  8
0
 10
-2.8373962777550332e-05
 20
267.5
 30
0.0
 11
-1.7402404409949668e-05
 21
16.4999942779541
 31
0.0
  0
LINE
  8
0
 10
77.00000762939453
 20
28.499998092651367
 30
0.0
 11
77.00000762939453
 21
21.999982833862305
 31
0.0
  0
LINE
  8
0
 10
24.000001907348633
 20
81.99999237060547
 30
0.0
 11
22.469270706176758
 21
82.30447387695312
 31
0.0
  0
LINE
  8
0
 10
22.469270706176758
 20
82.30447387695312
 30
0.0
 11
21.171571731567383
 21
83.17156982421875
 31
0.0
  0
LINE
  8
0
 10
21.171571731567383
 20
83.17156982421875
 30
0.0
 11
20.30448341369629
 21
84.4692611694336
 31
0.0
  0
LINE
  8
0
 10
20.000001907348633
 20
85.99999237060547
 30
0.0
 11
20.30448341369629
 21
84.4692611694336
 31
0.0
  0
LINE
  8
0
 10
23.999998092651367
 20
202.0
 30
0.0
 11
22.469266891479492
 21
201.6955108642578
 31
0.0
  0
LINE
  8
0
 10
21.171567916870117
 20
200.8284149169922
 30
0.0
 11
22.469266891479492
 21
201.6955108642578
 31
0.0
  0
LINE
  8
0
 10
20.304479598999023
 20
199.53073120117188
 30
0.0
 11
21.171567916870117
 21
200.8284149169922
 31
0.0
  0
LINE
  8
0
 10
19.999998092651367
 20
198.0
 30
0.0
 11
20.304479598999023
 21
199.53073120117188
 31
0.0
  0
LINE
  8
0
 10
103.0
 20
202.0
 30
0.0
 11
104.53073120117188
 21
201.6955108642578
 31
0.0
  0
LINE
  8
0
 10
104.53073120117188
 20
201.6955108642578
 30
0.0
 11
105.82842254638672
 21
200.82843017578125
 31
0.0
  0
LINE
  8
0
 10
105.82842254638672
 20
200.82843017578125
 30
0.0
 11
106.69551849365234
 21
199.53073120117188
 31
0.0
  0
LINE
  8
0
 10
107.0
 20
198.0
 30
0.0
 11
106.69551849365234
 21
199.53073120117188
 31
0.0
  0
LINE
  8
0
 10
103.0
 20
82.0
 30
0.0
 11
104.5307388305664
 21
82.30448150634766
 31
0.0
  0
LINE
  8
0
 10
105.82843017578125
 20
83.17156982421875
 30
0.0
 11
104.5307388305664
 21
82.30448150634766
 31
0.0
  0
LINE
  8
0
 10
106.69551849365234
 20
84.4692611694336
 30
0.0
 11
105.82843017578125
 21
83.17156982421875
 31
0.0
  0
LINE
  8
0
 10
107.0
 20
86.0
 30
0.0
 11
106.69551849365234
 21
84.4692611694336
 31
0.0
  0
LINE
  8
0
 10
107.0
 20
86.0
 30
0.0
 11
107.0
 21
198.0
 31
0.0
  0
LINE
  8
0
 10
103.0
 20
82.0
 30
0.0
 11
24.000001907348633
 21
81.99999237060547
 31
0.0
  0
LINE
  8
0
 10
20.000001907348633
 20
85.99999237060547
 30
0.0
 11
19.999998092651367
 21
198.0
 31
0.0
  0
LINE
  8
0
 10
103.0
 20
202.0
 30
0.0
 11
23.999998092651367
 21
202.0
 31
0.0
  0
ENDSEC
  0
EOF
