  0
SECTION
  2
HEADER
  9
$ACADVER
  1
AC1009
  9
$INSBASE
 10
0.0
 20
0.0
 30
0.0
  9
$EXTMIN
 10
0.0
 20
0.0
 30
0.0
  9
$EXTMAX
 10
0.0
 20
0.0
 30
0.0
  0
ENDSEC
  0
SECTION
  2
TABLES
  0
TABLE
  2
VPORT
 70
1
  0
VPORT
  2
*ACTIVE
 70
0
 10
0.0
 20
0.0
 11
1.0
 21
1.0
 12
-5.0
 22
1.0
 13
0.0
 23
0.0
 14
0.1
 24
0.1
 15
0.1
 25
0.1
 16
0.0
 26
0.0
 36
1.0
 17
0.0
 27
0.0
 37
0.0
 40
10.0
 41
1.0
 42
50.0
 43
0.0
 44
0.0
 50
0.0
 51
0.0
 71
0
 72
100
 73
1
 74
1
 75
0
 76
0
 77
0
 78
0
  0
ENDTAB
  0
TABLE
  2
LTYPE
 70
8
  0
LTYPE
  2
CONTINUOUS
 70
0
  3
Solid line
 72
65
 73
0
 40
0.0
  0
LTYPE
  2
DOT
 70
0
  3
. . . . . . .
 72
65
 73
2
 40
0.25
 49
0.0
 49
-0.25
  0
LTYPE
  2
DASHED
 70
0
  3
__ __ __ __ __
 72
65
 73
2
 40
0.8
 49
0.5
 49
-0.3
  0
LTYPE
  2
DASHDOT
 70
0
  3
__ . __ . __ .
 72
65
 73
4
 40
1.0
 49
0.5
 49
-0.25
 49
0.0
 49
-0.25
  0
LTYPE
  2
DIVIDE
 70
0
  3
____ . . ____ . . 
 72
65
 73
6
 40
1.25
 49
0.5
 49
-0.25
 49
0.0
 49
-0.25
 49
0.0
 49
-0.25
  0
LTYPE
  2
BORDER
 70
0
  3
__ __ . __ __ . 
 72
65
 73
6
 40
1.75
 49
0.5
 49
-0.25
 49
0.5
 49
-0.25
 49
0.0
 49
-0.25
  0
LTYPE
  2
HIDDEN
 70
0
  3
__ __ __ __ __
 72
65
 73
2
 40
0.4
 49
0.25
 49
-0.25
  0
LTYPE
  2
CENTER
 70
0
  3
____ _ ____ _ __
 72
65
 73
4
 40
2.0
 49
1.25
 49
-0.25
 49
0.25
 49
-0.25
  0
ENDTAB
  0
TABLE
  2
LAYER
 70
1
  0
LAYER
  2
PYDXF
 70
64
 62
7
  6
continuous
  0
ENDTAB
  0
TABLE
  2
STYLE
 70
1
  0
STYLE
  2
STANDARD
 70
0
 40
0
 41
1.0
 50
0.0
 71
0
 42
1
 3
ARIAL.TTF
 4

  0
ENDTAB
  0
TABLE
  2
VIEW
 70
1
  0
VIEW
  2
BF_TOPVIEW
 70
0
 40
120.0
 10
0.0
 20
0.0
 41
200.0
 11
0.0
 21
0.0
 31
1.0
 12
0.0
 22
0.0
 32
0.0
 42
50.0
 43
0.0
 44
0.0
 50
0.0
 71
0
  0
ENDTAB
  0
ENDSEC
  0
SECTION
  2
BLOCKS
  0
ENDSEC
  0
SECTION
  2
ENTITIES
  0
LINE
  8
0
 10
126.00000762939453
 20
8.999998092651367
 30
0.0
 11
126.0
 21
208.0
 31
0.0
  0
LINE
  8
0
 10
125.82706451416016
 20
209.75579833984375
 30
0.0
 11
126.0
 21
208.0
 31
0.0
  0
LINE
  8
0
 10
125.3149185180664
 20
211.44415283203125
 30
0.0
 11
125.82706451416016
 21
209.75579833984375
 31
0.0
  0
LINE
  8
0
 10
124.48322296142578
 20
213.0001220703125
 30
0.0
 11
125.3149185180664
 21
211.44415283203125
 31
0.0
  0
LINE
  8
0
 10
123.36396026611328
 20
214.36395263671875
 30
0.0
 11
124.48322296142578
 21
213.0001220703125
 31
0.0
  0
LINE
  8
0
 10
122.00012969970703
 20
215.48321533203125
 30
0.0
 11
123.36396026611328
 21
214.36395263671875
 31
0.0
  0
LINE
  8
0
 10
120.44415283203125
 20
216.31491088867188
 30
0.0
 11
122.00012969970703
 21
215.48321533203125
 31
0.0
  0
LINE
  8
0
 10
118.75581359863281
 20
216.82705688476562
 30
0.0
 11
120.44415283203125
 21
216.31491088867188
 31
0.0
  0
LINE
  8
0
 10
117.0
 20
217.0
 30
0.0
 11
118.75581359863281
 21
216.82705688476562
 31
0.0
  0
LINE
  8
0
 10
118.75582122802734
 20
0.17293304204940796
 30
0.0
 11
117.00000762939453
 21
-2.5151616682705935e-06
 31
0.0
  0
LINE
  8
0
 10
120.44416046142578
 20
0.6850790977478027
 30
0.0
 11
118.75582122802734
 21
0.17293304204940796
 31
0.0
  0
LINE
  8
0
 10
122.00013732910156
 20
1.516767144203186
 30
0.0
 11
120.44416046142578
 21
0.6850790977478027
 31
0.0
  0
LINE
  8
0
 10
123.36396789550781
 20
2.636037588119507
 30
0.0
 11
122.00013732910156
 21
1.516767144203186
 31
0.0
  0
LINE
  8
0
 10
124.48323059082031
 20
3.999868154525757
 30
0.0
 11
123.36396789550781
 21
2.636037588119507
 31
0.0
  0
LINE
  8
0
 10
125.31492614746094
 20
5.555844783782959
 30
0.0
 11
124.48323059082031
 21
3.999868154525757
 31
0.0
  0
LINE
  8
0
 10
125.82707214355469
 20
7.244184494018555
 30
0.0
 11
125.31492614746094
 21
5.555844783782959
 31
0.0
  0
LINE
  8
0
 10
126.00000762939453
 20
8.999998092651367
 30
0.0
 11
125.82707214355469
 21
7.244184494018555
 31
0.0
  0
LINE
  8
0
 10
3.999876022338867
 20
215.48321533203125
 30
0.0
 11
2.6360456943511963
 21
214.3639678955078
 31
0.0
  0
LINE
  8
0
 10
-3.9340216062555555e-07
 20
8.999992370605469
 30
0.0
 11
0.17293517291545868
 21
7.244178771972656
 31
0.0
  0
LINE
  8
0
 10
0.6850812435150146
 20
5.555839538574219
 30
0.0
 11
1.5167769193649292
 21
3.9998779296875
 31
0.0
  0
LINE
  8
0
 10
3.9998703002929688
 20
1.5167847871780396
 30
0.0
 11
5.55584716796875
 21
0.6850893497467041
 31
0.0
  0
LINE
  8
0
 10
5.55584716796875
 20
0.6850893497467041
 30
0.0
 11
7.244178771972656
 21
0.17294342815876007
 31
0.0
  0
LINE
  8
0
 10
117.0
 20
217.0
 30
0.0
 11
9.00001335144043
 21
217.0
 31
0.0
  0
LINE
  8
0
 10
117.00000762939453
 20
-2.5151616682705935e-06
 30
0.0
 11
8.999992370605469
 21
-7.23599259799812e-06
 31
0.0
  0
LINE
  8
0
 10
0.17294158041477203
 20
209.75579833984375
 30
0.0
 11
6.166820639919024e-06
 21
208.0
 31
0.0
  0
LINE
  8
0
 10
0.6850875020027161
 20
211.44415283203125
 30
0.0
 11
0.17294158041477203
 21
209.75579833984375
 31
0.0
  0
LINE
  8
0
 10
-3.9340216062555555e-07
 20
8.999992370605469
 30
0.0
 11
6.166820639919024e-06
 21
208.0
 31
0.0
  0
LINE
  8
0
 10
0.17293517291545868
 20
7.244178771972656
 30
0.0
 11
0.6850812435150146
 21
5.555839538574219
 31
0.0
  0
LINE
  8
0
 10
2.6360397338867188
 20
2.63604736328125
 30
0.0
 11
3.9998703002929688
 21
1.5167847871780396
 31
0.0
  0
LINE
  8
0
 10
1.5167769193649292
 20
3.9998779296875
 30
0.0
 11
2.6360397338867188
 21
2.63604736328125
 31
0.0
  0
LINE
  8
0
 10
9.00001335144043
 20
217.0
 30
0.0
 11
7.244199752807617
 21
216.8270721435547
 31
0.0
  0
LINE
  8
0
 10
5.555852890014648
 20
216.31492614746094
 30
0.0
 11
3.999876022338867
 21
215.48321533203125
 31
0.0
  0
LINE
  8
0
 10
7.244178771972656
 20
0.17294342815876007
 30
0.0
 11
8.999992370605469
 21
-7.23599259799812e-06
 31
0.0
  0
LINE
  8
0
 10
7.244199752807617
 20
216.8270721435547
 30
0.0
 11
5.555852890014648
 21
216.31492614746094
 31
0.0
  0
LINE
  8
0
 10
1.5167829990386963
 20
213.00013732910156
 30
0.0
 11
0.6850875020027161
 21
211.44415283203125
 31
0.0
  0
LINE
  8
0
 10
2.6360456943511963
 20
214.3639678955078
 30
0.0
 11
1.5167829990386963
 21
213.00013732910156
 31
0.0
  0
ENDSEC
  0
EOF
